<svg width="25" height="24" viewBox="0 0 25 24" fill="none" xmlns="http://www.w3.org/2000/svg">
<path fill-rule="evenodd" clip-rule="evenodd" d="M13.1716 4.89964L13.7606 4.7243C13.8769 4.68968 14.0015 4.74008 14.0623 4.84637L14.3374 5.32673L15.205 5.54258H16.0958C16.1917 5.54258 16.2801 5.59553 16.3264 5.68079L16.5206 6.03857L16.807 5.85556C16.8785 5.80986 16.9673 5.80179 17.0457 5.83387L17.7396 6.11781L18.1703 5.85313C18.2516 5.80316 18.3531 5.80154 18.4359 5.84889L19.3683 6.38201L20.5193 5.91594C20.5979 5.88414 20.6867 5.89256 20.7581 5.93856L21.017 6.10542L21.3326 5.92981C21.411 5.8862 21.5059 5.88594 21.5845 5.92913L22.9951 6.70394H23.5198C23.6652 6.70394 23.783 6.82346 23.783 6.97091V10.2615L24.1908 10.8683C24.1985 10.8798 24.3873 11.3756 24.757 12.3557C24.7684 12.3861 24.7742 12.4183 24.7742 12.4507V12.994C24.7742 13.0231 24.7695 13.052 24.7603 13.0795L24.4716 13.9461V14.8301C24.4716 14.8865 24.454 14.9414 24.4213 14.987L23.941 15.6574C23.9139 15.6952 23.8774 15.7252 23.8353 15.7442L22.8107 16.2078C22.7024 16.2568 22.5752 16.2263 22.5 16.1333L22.1521 15.7033L22.012 15.7233L22.213 16.5244C22.2398 16.6313 22.1991 16.7439 22.1105 16.8078L20.3092 18.1075C20.2559 18.1459 20.1905 18.1629 20.1256 18.155L19.2403 18.0483L19.3539 18.3995C19.4238 18.6154 19.2127 18.8156 19.005 18.7302L18.6911 18.6011L18.6321 18.7482C18.6008 18.8263 18.535 18.8848 18.4546 18.906L18.1088 18.9972L18.2755 19.4661C18.3373 19.6401 18.2102 19.8236 18.0279 19.8236C18.0253 19.8373 18.0249 19.9795 18.0266 20.2503C18.0266 20.3977 17.9087 20.5173 17.7634 20.5173H17.2105V20.6026L17.3738 20.639C17.4801 20.6627 17.5611 20.7503 17.5776 20.8595L17.7382 21.9293L18.0208 23.2815C18.0363 23.3553 18.0202 23.4323 17.9766 23.4934L17.6939 23.8895C17.6083 24.0094 17.4429 24.0359 17.3252 23.9484L16.8612 23.6038H16.0958C16.0548 23.6038 16.0144 23.5941 15.9778 23.5755L15.0779 23.1179L14.0951 22.8391C13.9915 22.8097 13.916 22.7193 13.9044 22.6108L13.8334 21.9482L13.4352 21.5773C13.39 21.5352 13.3608 21.4784 13.3525 21.4168L13.2031 20.3072L12.9472 20.0924L11.9717 18.9905C11.9553 18.9718 11.9415 18.951 11.9308 18.9285L10.7469 16.4389L9.89995 15.7546L8.29769 15.525L7.841 15.6465L7.0247 17.2051C6.96035 17.328 6.81377 17.3801 6.68787 17.3249L4.14178 16.209C4.07624 16.1803 4.02502 16.1258 3.99986 16.058L3.64837 15.1099L3.32221 14.0491L2.68821 13.4481L0.83216 11.8773L0.0900499 11.2198C0.0328304 11.1691 0 11.0958 0 11.0187V10.5619C0 10.4144 0.11784 10.2949 0.263202 10.2949H6.6638V0.266975C6.6638 0.119529 6.78164 0 6.927 0H12.5817C12.7271 0 12.8449 0.119529 12.8449 0.266975V4.63711L13.1716 4.89964ZM17.0976 19.7839C16.8718 19.6427 16.9704 19.2897 17.2357 19.2897H17.6532L17.5158 18.903C17.4632 18.7553 17.5472 18.5936 17.6971 18.5541L18.1943 18.4229L18.3026 18.1529C18.3573 18.0164 18.5106 17.9507 18.6452 18.0061L18.6114 17.817C18.5514 17.6315 18.7015 17.4456 18.8926 17.4686L20.0868 17.6127L21.6583 16.4788L21.4294 15.5663C21.3908 15.4122 21.4926 15.2582 21.6478 15.2361L22.2251 15.1536C22.316 15.1406 22.407 15.1766 22.4653 15.2486L22.7796 15.6372L23.5566 15.2857L23.9452 14.7433V13.9022C23.9452 13.8731 23.9499 13.8443 23.959 13.8167L24.2478 12.9501V12.4998L23.7384 11.1431L23.3023 10.4942C23.2725 10.4499 23.2566 10.3975 23.2566 10.3438V7.23789H22.9284C22.8846 7.23789 22.8415 7.22681 22.803 7.20567L21.46 6.46794L21.1337 6.64947C21.0496 6.69628 20.947 6.69293 20.866 6.64073L20.5894 6.46249L19.4464 6.9253C19.3724 6.95527 19.289 6.94961 19.2196 6.90992L18.3115 6.39067L17.8998 6.64372C17.8288 6.68731 17.7418 6.69445 17.6649 6.66298L16.9736 6.38013L16.5649 6.64129C16.4368 6.72317 16.2671 6.67873 16.1941 6.54415L15.9402 6.07653H15.1732C15.1591 6.07653 14.8025 5.99044 14.1033 5.81827C14.0339 5.80099 13.9744 5.75579 13.9384 5.69307L13.7108 5.29559L13.1891 5.45091C13.1071 5.47532 13.0185 5.45783 12.9515 5.40399L12.4183 4.97546C12.3553 4.92482 12.3185 4.84774 12.3185 4.7662V0.533951H7.19021V10.5619C7.19021 10.7093 7.07237 10.8289 6.927 10.8289L0.526405 10.8303L0.530406 10.901L1.17393 11.4712L3.03644 13.048L3.73238 13.7071C3.76574 13.7387 3.79043 13.7785 3.80402 13.8227L4.14595 14.9363L4.45313 15.7638L6.67375 16.7371L7.43023 15.2927C7.46471 15.2269 7.52477 15.1787 7.59586 15.1598L8.21529 14.9949C8.24908 14.9859 8.28431 14.9838 8.31891 14.9888L10.0446 15.2361C10.0912 15.2427 10.1351 15.2619 10.1718 15.2916L11.1218 16.0592C11.1527 16.0842 11.1777 16.1159 11.1949 16.152L12.3888 18.6626L13.298 19.6938L13.6178 19.9622C13.6686 20.0049 13.7018 20.0654 13.7107 20.1317L13.8612 21.2491L14.2624 21.6229C14.3094 21.6667 14.3391 21.7264 14.346 21.7907L14.4085 22.3735L15.2441 22.6106L16.1581 23.0699H16.9473C17.0032 23.0699 17.0576 23.0879 17.1027 23.1214L17.4226 23.359L17.4817 23.2763L17.2205 22.025L17.0844 21.1212L16.8908 21.0781C16.7701 21.0512 16.6841 20.9427 16.6841 20.8173V20.2503C16.6841 20.1028 16.8019 19.9833 16.9473 19.9833L17.4041 19.9756L17.0976 19.7839Z" fill="#576A74"/>
</svg>
