<svg width="43" height="25" viewBox="0 0 43 25" fill="none" xmlns="http://www.w3.org/2000/svg">
<path d="M22.639 7.579C19.565 7.579 16.817 9.425 15.361 12.116C14.068 9.425 11.319 7.579 8.083 7.579C6.31 7.579 4.529 8.242 3.236 9.257V1.69C3.236 0.845002 2.423 1.11125e-06 1.618 1.11125e-06C0.649 -0.000998889 0 0.673001 0 1.689V16.159C0 20.697 3.716 24.574 8.083 24.574C11.157 24.574 13.905 22.713 15.361 20.021C16.817 22.712 19.403 24.574 22.639 24.574C27.168 24.574 30.722 20.697 30.722 16.159C30.722 11.439 27.168 7.579 22.639 7.579ZM8.083 21.205C5.334 21.205 3.236 18.852 3.236 16.159C3.236 13.301 5.497 11.101 8.083 11.101C10.669 11.101 12.937 13.468 12.937 16.159C13.1 18.852 10.832 21.205 8.083 21.205ZM22.639 21.205C19.89 21.205 17.785 18.852 17.785 16.159C17.785 13.301 20.054 11.101 22.639 11.101C25.388 11.101 27.486 13.468 27.486 16.159C27.485 18.852 25.225 21.205 22.639 21.205Z" fill="#90A1E5"/>
<path d="M41.785 22.005L37.534 16.113L41.785 10.223C42.279 9.54597 42.115 8.36397 41.457 7.86897C40.808 7.36397 39.664 7.53197 39.17 8.19297L35.576 13.254L31.974 8.19297C31.488 7.53197 30.337 7.36397 29.688 7.86897C29.03 8.36397 28.866 9.54697 29.359 10.223L33.611 16.113L29.359 22.005C28.866 22.665 29.03 23.85 29.688 24.357C30.337 24.865 31.488 24.697 31.974 24.019L35.576 18.975L39.17 24.019C39.664 24.697 40.808 24.865 41.457 24.357C42.115 23.849 42.279 22.665 41.785 22.005Z" fill="#90A1E5"/>
</svg>
