<svg width="24" height="24" viewBox="0 0 24 24" fill="none" xmlns="http://www.w3.org/2000/svg">
<path d="M16.2754 6.67826H12.6687C12.6687 6.67826 12.6665 9.09488 12.6709 9.15876C12.6785 9.25425 12.6986 9.52171 13.1988 9.85658L14.4609 10.6371C14.4609 10.6371 15.3033 10.176 15.7796 9.85658C16.2124 9.56636 16.2695 9.32675 16.2745 9.1718C16.2798 9.09665 16.2754 6.67826 16.2754 6.67826ZM14.7834 9.08029C14.6773 9.10527 14.4768 9.15213 14.399 9.17025C14.3871 9.09886 14.3413 8.83008 14.2969 8.56837C14.3276 8.554 14.3413 8.54781 14.3685 8.53521C14.4134 8.59401 14.7021 8.97353 14.7834 9.08029ZM14.405 8.38866C14.405 8.38866 14.3192 8.42845 14.2766 8.44812C14.2662 8.38756 14.2355 8.20741 14.2355 8.20741H13.7299C13.7299 8.20741 13.7096 8.38667 13.7025 8.44945H13.3796L13.2419 8.90633H12.8575C12.8568 8.69613 12.8564 8.37208 12.8564 8.01466L13.1236 8.18774L12.9353 8.26267L12.9965 8.41563C12.9965 8.41563 14.4032 7.85352 14.4777 7.82368C14.546 7.86723 16.0873 8.85306 16.0873 8.85306L16.0891 8.85041V8.90633H14.7989L14.405 8.38866V8.38866ZM14.2014 8.70895C14.2189 8.81195 14.2374 8.92092 14.2538 9.01796H13.7562C13.7669 8.92534 13.7792 8.81527 13.7914 8.70895H14.2014ZM13.8075 8.5677C13.821 8.449 13.8318 8.35329 13.8349 8.32522H14.1362C14.1406 8.35086 14.157 8.44635 14.1775 8.5677H13.8075ZM13.4119 8.75006C13.4377 8.66496 13.4594 8.59246 13.4671 8.56726H13.689C13.682 8.62915 13.6749 8.69126 13.6683 8.75006H13.4119V8.75006ZM13.6524 8.8913C13.64 9.00005 13.6303 9.08493 13.6267 9.11654H13.3016C13.3151 9.07189 13.3416 8.98414 13.3694 8.8913H13.6524ZM14.2275 7.66874C14.2275 7.52705 14.3429 7.41167 14.4848 7.41167C14.6267 7.41167 14.7421 7.52705 14.7421 7.66874C14.7421 7.70786 14.7304 7.74455 14.7138 7.77903L14.4954 7.63934L14.2386 7.7419C14.2315 7.71825 14.2275 7.69393 14.2275 7.66874ZM16.0893 8.65877L15.6932 8.40546L16.0893 8.22045V8.65877ZM12.9629 6.86658L14.0056 7.40703L14.0706 7.2817L13.2697 6.86658H14.006L14.2191 7.20919L14.3389 7.1347L14.1722 6.86658H14.7646L14.6013 7.12498L14.7206 7.20035L14.9317 6.86658H15.6793L14.8955 7.27396L14.9605 7.39929L15.9852 6.86658H16.0878C16.088 7.08011 16.0884 7.31397 16.0886 7.54827H15.0555V7.68929H16.0889C16.0891 7.80777 16.0891 7.92492 16.0891 8.03876L15.529 8.30047L14.8402 7.85993C14.8718 7.80136 14.8897 7.73637 14.8897 7.66874C14.8897 7.44549 14.708 7.26379 14.4848 7.26379C14.2615 7.26379 14.0796 7.44549 14.0796 7.66874C14.0796 7.71272 14.0887 7.75516 14.1024 7.79627L13.3108 8.1128L12.8564 7.81882V7.68929H13.9143V7.54827H12.8564C12.8564 7.31397 12.8566 7.08077 12.8568 6.86658H12.9629V6.86658ZM15.6749 9.70031C15.674 9.70097 15.6729 9.70163 15.672 9.7023H14.3489V9.86697H15.4145C15.0389 10.0995 14.6039 10.3413 14.4645 10.418C14.3818 10.367 13.3036 9.70031 13.3036 9.70031C13.0222 9.51176 12.8725 9.32741 12.8593 9.15213C12.8588 9.14395 12.8584 9.11566 12.8582 9.07123H13.1924L13.1433 9.23414H13.7319C13.7319 9.23414 13.735 9.20584 13.7403 9.1592H14.2779C14.2923 9.2432 14.3018 9.30023 14.3035 9.30951H13.1426L13.209 9.47242H14.8057C14.8091 9.47131 15.0228 9.30951 15.0228 9.30951H14.3197L14.987 9.15368L14.9242 9.07123H16.0884C16.0882 9.11212 16.0878 9.13865 16.0873 9.14594C16.0842 9.23104 16.0776 9.4302 15.6749 9.70031V9.70031ZM11.3279 6.67826H7.72143C7.72143 6.67826 7.71878 9.09488 7.72342 9.15898C7.73071 9.25425 7.75105 9.52171 8.25126 9.85658L9.51273 10.6371L9.55871 10.6097C9.56667 10.6055 10.3558 10.176 10.8321 9.85658C11.2645 9.56702 11.3217 9.32741 11.3272 9.17224C11.3323 9.09488 11.3279 6.67826 11.3279 6.67826V6.67826ZM11.14 6.86658C11.1405 7.12034 11.1409 7.4026 11.1414 7.68023H7.90909C7.90909 7.40238 7.90931 7.121 7.90954 6.86658H11.14ZM10.6577 9.74562C10.5605 9.80928 10.4548 9.87515 10.3456 9.94146V7.8449H10.6577V9.74562V9.74562ZM10.1692 7.8449V10.0467C10.0596 10.1112 9.95304 10.1729 9.85711 10.2275V7.8449H10.1692ZM8.3914 7.8449H8.70373V9.9156C8.56315 9.82851 8.44666 9.75645 8.3914 9.72219V7.8449ZM8.88012 7.8449H9.19223V10.2175C9.09475 10.1574 8.98644 10.0904 8.88012 10.0244V7.8449V7.8449ZM7.91175 9.15213C7.90954 9.11256 7.90887 8.61456 7.90887 8.02372V7.8449H8.21523V9.59642C8.02558 9.44412 7.92258 9.29492 7.91175 9.15213ZM9.51671 10.418C9.50058 10.4081 9.44532 10.374 9.36862 10.3265V7.8449H9.68072V10.327C9.61154 10.3656 9.55252 10.3983 9.51671 10.418V10.418ZM11.14 9.14638C11.1372 9.22286 11.1285 9.3924 10.8341 9.62184V7.8449H11.1414C11.1418 8.07921 11.1418 8.30555 11.1418 8.50205C11.1418 8.86213 11.1414 9.12096 11.14 9.14638ZM17.6412 2.39231L17.2334 2.19824C17.2334 2.19824 16.5712 2.89959 16.3906 3.09101C16.4242 2.83041 16.5477 1.8722 16.5477 1.8722L16.1169 1.66664L15.9063 3.51806L16.3484 3.72827L17.6412 2.39231ZM16.0321 3.44843C16.0405 3.37328 16.1981 1.98683 16.2146 1.8428C16.288 1.87795 16.3775 1.92037 16.4211 1.94126C16.4129 2.00445 16.248 3.28265 16.248 3.28265L16.3256 3.32841L16.357 3.29658C16.357 3.29658 17.2053 2.3985 17.2602 2.34036C17.3017 2.36004 17.3753 2.39518 17.4441 2.4279C17.3439 2.53134 16.3756 3.53177 16.3225 3.58658C16.2688 3.56094 16.0856 3.47385 16.0321 3.44843ZM19.9663 5.00963C20.022 4.95791 20.0514 4.89956 20.0537 4.83568C20.0579 4.72295 19.9772 4.61994 19.8894 4.52534L19.7756 4.4031L19.3653 4.78373L19.4789 4.90619C19.5475 4.98001 19.7559 5.20415 19.9663 5.00963V5.00963ZM19.7694 4.56822C19.7864 4.58656 19.8039 4.60491 19.8039 4.60491C19.8697 4.67609 19.9369 4.75787 19.9369 4.8275V4.83125C19.9356 4.86353 19.9195 4.89381 19.887 4.92387C19.797 5.00698 19.7066 4.97979 19.5645 4.82683C19.5645 4.82683 19.5475 4.80827 19.5305 4.79014C19.5853 4.7393 19.7148 4.61884 19.7694 4.56822V4.56822ZM18.0409 4.82573L18.2628 4.52202C18.2628 4.52202 17.8194 4.1982 17.7414 4.14117C17.7862 4.07972 17.8998 3.92411 17.9447 3.86266C18.0212 3.91836 18.4191 4.20881 18.4191 4.20881L18.6405 3.90488C18.6405 3.90488 18.2431 3.61465 18.1666 3.55895C18.2086 3.50126 18.2951 3.38345 18.3371 3.32576C18.4149 3.38278 18.8547 3.70395 18.8547 3.70395L19.076 3.40025L18.198 2.75835L17.1589 4.1814L18.0409 4.82573V4.82573ZM18.2234 2.9217C18.3015 2.97873 18.8351 3.36864 18.9129 3.42567C18.8837 3.4659 18.8585 3.50038 18.8291 3.54039C18.7513 3.48358 18.3114 3.16263 18.3114 3.16263L18.0033 3.58437C18.0033 3.58437 18.4009 3.8746 18.4774 3.9303C18.4482 3.97053 18.4228 4.00523 18.3934 4.04546C18.3169 3.98954 17.9193 3.69909 17.9193 3.69909L17.578 4.16681C17.578 4.16681 18.0212 4.49041 18.0992 4.54744C18.07 4.58767 18.0446 4.62237 18.0152 4.66238C17.9372 4.60535 17.4003 4.21301 17.322 4.15576C17.3839 4.07132 18.1616 3.00635 18.2234 2.9217V2.9217ZM21.2495 11.0354L21.2782 11.4812C21.2782 11.4812 21.9391 11.4388 21.9696 11.437C21.9975 11.4512 23.0761 12.0004 23.0761 12.0004L23.0474 11.5164C23.0474 11.5164 22.5324 11.2644 22.3931 11.1956C22.5235 11.1108 23.001 10.8009 23.001 10.8009L22.9678 10.2774C22.9678 10.2774 21.9667 10.9728 21.9409 10.991C21.9099 10.9932 21.2495 11.0354 21.2495 11.0354V11.0354ZM21.9807 11.1055C21.9807 11.1055 22.7225 10.59 22.8639 10.4918C22.8706 10.5893 22.8772 10.7003 22.8794 10.7403C22.8264 10.7743 22.1566 11.21 22.1566 11.21C22.1566 11.21 22.8772 11.5639 22.9347 11.5915C22.9369 11.6287 22.9413 11.7153 22.9479 11.8035C22.7954 11.7261 21.9939 11.3183 21.9939 11.3183L21.3874 11.357L21.3737 11.1444L21.9807 11.1055V11.1055ZM20.1613 6.74324C20.1025 6.64776 20.0674 6.52928 20.0601 6.40108L20.055 6.31332L19.6617 6.50474L19.6881 6.58653C19.7336 6.72645 19.7608 6.81066 19.8523 6.95787C19.9741 7.15438 20.1242 7.27838 20.2857 7.31618C20.4164 7.34668 20.5494 7.3206 20.6805 7.23904C20.9873 7.04828 20.9307 6.75319 20.8892 6.53746C20.8598 6.38383 20.8448 6.28768 20.9091 6.2479C21.0344 6.17009 21.1193 6.26536 21.1593 6.3288C21.2141 6.41699 21.2517 6.52066 21.2678 6.6283L21.2795 6.70611L21.6396 6.53525L21.6288 6.48905C21.5989 6.36261 21.5432 6.23397 21.4641 6.10621C21.3571 5.93424 21.2139 5.81974 21.0605 5.78393C20.9268 5.75255 20.7897 5.77929 20.6536 5.86417C20.3567 6.04852 20.4095 6.33653 20.448 6.54696C20.4783 6.71053 20.4926 6.81309 20.4157 6.86106C20.3204 6.91985 20.2093 6.81972 20.1613 6.74324V6.74324ZM20.4772 6.96053C20.6259 6.86791 20.5939 6.69395 20.5629 6.52574C20.5251 6.31929 20.486 6.10577 20.7152 5.96342C20.8242 5.89578 20.9312 5.87368 21.034 5.89755C21.1569 5.9265 21.2745 6.02244 21.3646 6.16788C21.4285 6.27066 21.4734 6.37278 21.5023 6.47358C21.457 6.49502 21.4177 6.51093 21.3684 6.53436C21.3456 6.43865 21.3085 6.34758 21.2588 6.26713C21.1812 6.1429 21.0269 6.03725 20.8474 6.14865C20.7117 6.23286 20.7435 6.39887 20.7742 6.55956C20.8151 6.77198 20.8574 6.99125 20.6186 7.13957C20.5147 7.20433 20.4117 7.22555 20.3125 7.20234C20.1472 7.16366 20.0249 7.01446 19.9515 6.89642C19.8711 6.7669 19.8452 6.69064 19.8045 6.56509C19.8481 6.54409 19.8916 6.52287 19.9504 6.49435C19.965 6.57503 20.0063 6.71451 20.0621 6.80469C20.1518 6.94925 20.328 7.0527 20.4772 6.96053ZM15.4443 1.46306L15.0157 1.33751L14.5193 3.02846L14.9481 3.15445L15.4443 1.46306V1.46306ZM14.6643 2.94911C14.6939 2.84875 15.0655 1.58308 15.0949 1.48251C15.1545 1.49997 15.2396 1.52517 15.2993 1.54241C15.2699 1.64298 14.8984 2.90866 14.869 3.00923C14.8093 2.99177 14.724 2.96657 14.6643 2.94911ZM22.2627 8.9196C22.161 8.94678 20.923 9.27083 20.923 9.27083L21.0366 9.70318L22.3777 9.35217C22.3998 9.43904 22.497 9.80817 22.497 9.80817L22.8595 9.71291L22.5081 8.36832L22.1456 8.46359C22.1456 8.46359 22.2406 8.83295 22.2627 8.9196ZM22.4241 8.5109C22.4506 8.60904 22.6915 9.53143 22.7181 9.62935C22.6694 9.64195 22.6274 9.653 22.5788 9.6656C22.5567 9.57874 22.4594 9.20938 22.4594 9.20938L21.1199 9.56061C21.1043 9.50049 21.0817 9.4145 21.0658 9.35416C21.1695 9.32719 22.4064 9.00315 22.4064 9.00315C22.4064 9.00315 22.3091 8.63379 22.287 8.54715C22.3357 8.53455 22.3777 8.52372 22.4241 8.5109V8.5109ZM20.6272 8.40811L22.2472 7.71294L22.0704 7.30247L20.4504 7.99764L20.6272 8.40811ZM22.0925 7.65172C21.9968 7.69305 20.7846 8.21338 20.6885 8.25471C20.6639 8.19768 20.6288 8.11612 20.6043 8.05887C20.7004 8.01776 21.9126 7.49721 22.009 7.4561C22.0335 7.51312 22.0682 7.59469 22.0925 7.65172ZM7.79216 3.64405L7.59964 3.32111C7.59964 3.32111 7.13391 3.59808 7.0508 3.64737C6.99598 3.5552 6.34215 2.45641 6.34215 2.45641L5.95798 2.68474L6.85938 4.19908L7.79216 3.64405V3.64405ZM6.30148 2.61666C6.35629 2.70884 7.01013 3.80762 7.01013 3.80762C7.01013 3.80762 7.47608 3.53044 7.55897 3.48115C7.58461 3.52381 7.60649 3.56072 7.63191 3.6036C7.5488 3.65289 6.98294 3.98976 6.89983 4.03905C6.84634 3.94887 6.17195 2.8156 6.11823 2.72564C6.1715 2.69381 6.24798 2.64849 6.30148 2.61666V2.61666ZM18.7539 5.51073C18.7539 5.51073 19.183 5.11242 19.2548 5.04588C19.2707 5.06312 19.2871 5.08081 19.2871 5.08081C19.3269 5.12391 19.3446 5.15419 19.3446 5.1889C19.3446 5.21852 19.3317 5.25167 19.3087 5.29831C19.3087 5.29853 19.0492 5.82903 19.0492 5.82903L19.3859 6.19219L19.7144 5.48177C19.7265 5.45304 19.7504 5.39159 19.7541 5.32506C19.9115 5.39093 20.0895 5.36506 20.2214 5.24239C20.3291 5.14226 20.3859 5.03284 20.3901 4.91724C20.3985 4.69178 20.2084 4.48754 20.0406 4.30717L19.7418 3.9849L18.4502 5.18315L18.7539 5.51073V5.51073ZM19.7356 4.15001C19.7911 4.20991 19.9551 4.38674 19.9551 4.38674C20.1045 4.54744 20.2736 4.72913 20.2736 4.90353C20.2736 4.90663 20.2734 4.90994 20.2734 4.91326C20.2703 4.9977 20.2274 5.07749 20.1418 5.15685C20.017 5.27289 19.8426 5.27621 19.7077 5.16547L19.6684 5.13231L19.5895 5.21034L19.6213 5.2499C19.65 5.28593 19.6456 5.34473 19.6076 5.43425C19.6083 5.43314 19.4305 5.81709 19.3532 5.98464C19.2939 5.92098 19.2212 5.84273 19.1896 5.80825C19.2197 5.74636 19.4135 5.34981 19.4135 5.34981C19.4434 5.28925 19.4619 5.23752 19.4619 5.18691C19.4619 5.12745 19.4363 5.06954 19.3729 5.00146L19.261 4.88055C19.261 4.88055 18.8317 5.27908 18.7604 5.34561C18.7179 5.30008 18.6576 5.23509 18.6153 5.18956C18.692 5.11816 19.6587 4.22141 19.7356 4.15001V4.15001ZM2.79203 6.89687C2.72418 6.86261 2.65919 6.85531 2.5984 6.87543C2.4912 6.91057 2.42268 7.02175 2.36432 7.13714L2.28917 7.28612L2.78828 7.53899L2.86387 7.39023C2.90919 7.30026 3.04734 7.02706 2.79203 6.89687V6.89687ZM2.44589 7.23461C2.45716 7.21251 2.46865 7.18974 2.46865 7.18974C2.51242 7.10332 2.56591 7.01181 2.63112 6.98771C2.63244 6.98705 2.63355 6.98683 2.63488 6.98639C2.6656 6.97644 2.69942 6.9813 2.73899 7.0012C2.84796 7.05668 2.85393 7.15084 2.75954 7.33718C2.75954 7.33718 2.74805 7.35972 2.737 7.38183C2.67046 7.34823 2.51264 7.26843 2.44589 7.23461ZM3.68194 7.8606C3.68194 7.8606 3.15984 7.59623 3.07231 7.55203C3.08314 7.53081 3.09397 7.50937 3.09397 7.50937C3.1205 7.4572 3.14305 7.43023 3.17554 7.41808C3.20339 7.40791 3.23876 7.40857 3.2907 7.41388L3.87844 7.47334L4.10236 7.0317L3.32187 6.96981C3.29092 6.96826 3.22505 6.96738 3.16139 6.98683C3.16846 6.81619 3.0827 6.65837 2.92201 6.57702C2.79071 6.51071 2.66847 6.49546 2.5584 6.53149C2.34399 6.60178 2.21822 6.85089 2.10723 7.07082L1.90848 7.46273L3.48013 8.25913L3.68194 7.8606V7.8606ZM2.06561 7.41145C2.10257 7.33872 2.21159 7.12365 2.21159 7.12365C2.31061 6.92759 2.42246 6.70611 2.58581 6.64577C2.5889 6.64444 2.59199 6.64356 2.59509 6.64245C2.67555 6.61615 2.76507 6.62875 2.86896 6.68135C3.02125 6.75827 3.08491 6.92074 3.02766 7.08563L3.0102 7.13404L3.11077 7.18112L3.13708 7.13736C3.16073 7.09801 3.21731 7.08188 3.31457 7.0863C3.31325 7.0863 3.73499 7.1199 3.91889 7.13426C3.87977 7.21207 3.83158 7.30734 3.81014 7.34889C3.74184 7.34204 3.30241 7.29783 3.30241 7.29783C3.23544 7.29076 3.1804 7.2912 3.1331 7.30888C3.07718 7.32944 3.03186 7.37365 2.98987 7.45654L2.91515 7.60331C2.91515 7.60331 3.43769 7.86789 3.525 7.91188C3.49693 7.96758 3.45692 8.04649 3.42863 8.10197C3.33535 8.05489 2.15913 7.45875 2.06561 7.41145V7.41145ZM6.45479 4.47649L6.2112 4.18958C6.2112 4.18958 5.79278 4.54457 5.71895 4.60734C5.66944 4.54899 5.54499 4.40222 5.4957 4.34408C5.56798 4.28264 5.9433 3.96456 5.9433 3.96456L5.70016 3.67721C5.70016 3.67721 5.32484 3.99551 5.25278 4.05695C5.20658 4.0028 5.1122 3.8914 5.066 3.83702C5.1396 3.77447 5.55472 3.42235 5.55472 3.42235L5.31179 3.13544L4.48179 3.83879L5.62103 5.18315L6.45479 4.47649V4.47649ZM5.29831 3.30034C5.33036 3.33836 5.35799 3.37085 5.39004 3.40865C5.31644 3.4712 4.90132 3.82354 4.90132 3.82354L5.23907 4.22163C5.23907 4.22163 5.61418 3.90333 5.68646 3.8421C5.71873 3.88012 5.74658 3.91306 5.77863 3.95108C5.70635 4.01208 5.33102 4.33038 5.33102 4.33038L5.70524 4.77202C5.70524 4.77202 6.12411 4.41681 6.19772 4.35425C6.22999 4.39227 6.25784 4.42498 6.29011 4.463C6.21629 4.52556 5.70856 4.95592 5.63473 5.01848C5.56709 4.93846 4.7141 3.93251 4.64624 3.85249C4.72007 3.78994 5.22448 3.36267 5.29831 3.30034V3.30034ZM11.2703 2.74398C11.5179 2.72696 11.7012 2.65247 11.8145 2.52206C11.9206 2.40027 11.9668 2.22962 11.952 2.01482L11.8756 0.907808L11.4302 0.938533L11.4993 1.94453C11.5104 2.10668 11.4863 2.22299 11.4277 2.29019C11.3866 2.33749 11.3267 2.36313 11.2447 2.36888C11.1625 2.3744 11.0995 2.35716 11.052 2.31583C10.9848 2.25725 10.945 2.14527 10.9339 1.9833L10.8647 0.977436L10.4187 1.00794L10.4952 2.11506C10.5261 2.5656 10.7869 2.77714 11.2703 2.74398V2.74398ZM10.7562 1.1021C10.7633 1.20466 10.8172 1.99134 10.8172 1.99134C10.8309 2.18829 10.8824 2.32312 10.9753 2.40402C11.0464 2.46591 11.1397 2.49332 11.2527 2.48537C11.3656 2.47763 11.454 2.43784 11.5159 2.36711C11.5849 2.28798 11.6189 2.1737 11.6189 2.01948C11.6189 1.99307 11.5548 1.04706 11.5548 1.04706L11.767 1.03247C11.767 1.03247 11.8378 2.06904 11.8378 2.09114C11.8378 2.24134 11.8004 2.36026 11.7264 2.44536C11.6342 2.55124 11.4781 2.61268 11.2624 2.62749C10.8448 2.65623 10.6382 2.49067 10.6117 2.10712C10.6117 2.10712 10.5582 1.33265 10.5434 1.11647C10.6052 1.11227 10.6943 1.1063 10.7562 1.1021V1.1021ZM2.09965 9.68771C2.31231 9.74717 2.50749 9.73589 2.64918 9.6561C2.75859 9.59465 2.83286 9.49585 2.87022 9.36256C2.97322 8.99298 2.68454 8.77039 2.37973 8.68529C2.07021 8.59887 1.71473 8.66673 1.61785 9.01288C1.52141 9.35924 1.79037 9.60128 2.09965 9.68771V9.68771ZM1.73054 9.04448C1.81067 8.75735 2.11338 8.73216 2.34834 8.7978C2.45599 8.82809 2.77406 8.9406 2.77406 9.21756C2.77406 9.2527 2.76898 9.2905 2.75771 9.33117C2.72897 9.43351 2.67327 9.50845 2.59193 9.55442C2.47898 9.61786 2.31099 9.62537 2.13117 9.5752C1.89632 9.50955 1.6505 9.33117 1.73054 9.04448V9.04448ZM9.08849 2.71878C9.08849 2.71878 8.58231 2.91263 8.49235 2.94712C8.45389 2.84699 7.99656 1.65271 7.99656 1.65271L7.57924 1.81274L8.2092 3.45794L9.22311 3.06979L9.08849 2.71878V2.71878ZM8.27662 3.30719C8.23904 3.20927 7.76756 1.97777 7.73021 1.88016C7.78812 1.85783 7.87123 1.82601 7.92914 1.80368C7.9676 1.90386 8.42493 3.09831 8.42493 3.09831C8.42493 3.09831 8.93111 2.90401 9.02108 2.86953C9.03898 2.91595 9.05423 2.95596 9.07214 3.00238C8.98173 3.03686 8.3668 3.27271 8.27662 3.30719ZM14.1744 1.12133L13.7449 1.06651C13.7449 1.06651 13.6503 1.80876 13.6114 2.11307C13.5029 1.81009 13.212 0.998655 13.212 0.998655L12.7164 0.935438L12.4932 2.68297L12.9224 2.73823C12.9224 2.73823 13.0172 1.99488 13.0559 1.69095C13.1649 1.9928 13.458 2.80631 13.458 2.80631L13.9511 2.86931L14.1744 1.12133ZM13.5435 2.69955C13.5205 2.63567 13.0767 1.40382 13.0767 1.40382L12.9766 1.3815C12.9766 1.3815 12.8347 2.50216 12.8212 2.60738C12.7617 2.59986 12.6835 2.5897 12.624 2.58196C12.6373 2.47829 12.8044 1.16996 12.8176 1.06607C12.8937 1.0758 13.0765 1.09923 13.1262 1.10564C13.1492 1.16952 13.5897 2.4038 13.5897 2.4038L13.6899 2.41751C13.6899 2.41751 13.8327 1.30258 13.8461 1.19737C13.9056 1.20488 13.9841 1.21483 14.0435 1.22257C14.0303 1.32624 13.8632 2.63457 13.8499 2.73846C13.7741 2.72895 13.5933 2.70574 13.5435 2.69955V2.69955ZM3.84787 4.46698L3.57821 4.80561C3.57821 4.80561 4.16352 5.27179 4.40334 5.46299C4.08814 5.39844 3.24377 5.22581 3.24377 5.22581L2.93233 5.61661L4.31029 6.71429L4.5804 6.37632C4.5804 6.37632 3.99398 5.90948 3.75415 5.71851C4.06869 5.78217 4.91638 5.95413 4.91638 5.95413L5.22627 5.56488L3.84787 4.46698V4.46698ZM4.86952 5.82505C4.80298 5.81178 3.51985 5.55184 3.51985 5.55184L3.44868 5.62567C3.44868 5.62567 4.33283 6.3288 4.41594 6.39511C4.37859 6.44197 4.3293 6.50342 4.29194 6.55028C4.21016 6.48507 3.17857 5.66325 3.09678 5.59804C3.14453 5.53814 3.25925 5.3938 3.29041 5.3549C3.35717 5.36838 4.64052 5.63252 4.64052 5.63252L4.7044 5.55405C4.7044 5.55405 3.82555 4.85292 3.74266 4.78705C3.77979 4.74019 3.82886 4.67807 3.86644 4.63121C3.94823 4.69664 4.97982 5.51847 5.06182 5.58367C5.01408 5.64357 4.90068 5.78614 4.86952 5.82505V5.82505ZM2.00728 10.019C2.28247 10.0962 2.53313 10.0776 2.73207 9.96578C2.9173 9.86145 3.05147 9.6771 3.11977 9.43263C3.26124 8.92667 3.00682 8.50338 2.47235 8.35396C1.94296 8.20608 1.51018 8.43729 1.36817 8.94303L1.36808 8.94325C1.22491 9.45694 1.46978 9.86918 2.00728 10.019V10.019ZM1.48074 8.97464C1.60483 8.53057 1.97273 8.33583 2.44096 8.46669C2.9142 8.59865 3.13126 8.95673 3.00726 9.40102C2.9467 9.6183 2.83463 9.77391 2.6746 9.86388C2.50329 9.96025 2.28336 9.97506 2.03871 9.90654C1.65472 9.79955 1.44473 9.55133 1.44473 9.22198C1.44473 9.14373 1.45658 9.06106 1.48074 8.97464V8.97464ZM1.86886 11.9856C2.4193 12.0212 2.77119 11.6835 2.80987 11.0831C2.80987 11.0831 2.81032 11.0367 2.81032 10.9737C2.81032 10.8451 2.77517 10.6459 2.77517 10.6459L2.35652 10.6388L2.39366 10.7222C2.4246 10.7922 2.44206 10.937 2.43433 11.059C2.41465 11.3621 2.19494 11.5444 1.87474 11.5241C1.71188 11.5137 1.57201 11.4509 1.48092 11.3473C1.39942 11.2547 1.36092 11.1335 1.36963 10.9976C1.37551 10.9054 1.39191 10.7953 1.46996 10.6766L1.52004 10.6004L1.11094 10.5389L1.09238 10.5783C1.03979 10.6901 1.00336 10.8353 0.994809 10.9666C0.975645 11.265 1.04826 11.5168 1.20462 11.6945C1.35625 11.8669 1.58591 11.9675 1.86886 11.9856V11.9856ZM1.11136 10.9742C1.11665 10.8935 1.14125 10.7757 1.18459 10.668C1.22829 10.6746 1.26817 10.6835 1.32878 10.6928C1.275 10.8024 1.25851 10.9039 1.25307 10.9903C1.25203 11.0055 1.25159 11.0208 1.25159 11.0358C1.25159 11.1848 1.30004 11.3188 1.39319 11.4244C1.50492 11.5515 1.67329 11.6282 1.86723 11.6408C2.25241 11.6653 2.52694 11.4348 2.55081 11.0666C2.55236 11.0438 2.55303 11.0204 2.55303 10.9971C2.55303 10.9098 2.54043 10.8283 2.52296 10.7578C2.58154 10.7586 2.62376 10.7591 2.66951 10.7597C2.69316 10.8802 2.69316 11.0756 2.69316 11.0756C2.65868 11.611 2.36094 11.9001 1.87629 11.8689C1.6215 11.8526 1.42489 11.7679 1.29235 11.6174C1.17146 11.4801 1.10869 11.288 1.10869 11.0588C1.10869 11.0312 1.10955 11.0029 1.11136 10.9742V10.9742ZM17.858 20.8652L18.1141 21.2317L18.4791 20.9757L18.2229 20.6097L17.858 20.8652ZM18.1429 21.0688C18.1071 21.018 18.0562 20.945 18.0209 20.8942C18.0713 20.8586 18.1435 20.8082 18.1944 20.7724C18.23 20.8234 18.2808 20.8962 18.3164 20.9472C18.2658 20.9826 18.1937 21.0332 18.1429 21.0688ZM15.4267 22.0865L15.5837 22.5042L16.001 22.3473L15.8441 21.93L15.4267 22.0865ZM15.652 22.3539C15.6303 22.2964 15.5989 22.2125 15.5773 22.155C15.6352 22.1329 15.7176 22.1019 15.7755 22.0798C15.7974 22.1395 15.8286 22.2213 15.8507 22.281C15.7926 22.3009 15.7101 22.3318 15.652 22.3539ZM16.9303 20.2145C16.7013 20.1453 16.4367 20.1939 16.1206 20.3628L15.6736 20.602L16.5054 22.155L16.9524 21.9165C17.268 21.7476 17.455 21.5542 17.5244 21.325C17.5848 21.1258 17.5505 20.9037 17.4225 20.665C17.295 20.4262 17.1292 20.2748 16.9303 20.2145V20.2145ZM17.4126 21.2909C17.3533 21.4863 17.18 21.6618 16.8973 21.8133C16.8973 21.8133 16.6314 21.9554 16.5534 21.9974C16.5041 21.905 15.8812 20.7423 15.8319 20.6499C15.9099 20.6084 16.1758 20.466 16.1758 20.466C16.4588 20.3142 16.7013 20.2673 16.8962 20.3265C17.0646 20.3774 17.207 20.5098 17.3197 20.7202C17.3973 20.8652 17.4362 21.0018 17.4362 21.1276C17.4362 21.1842 17.4283 21.2388 17.4126 21.2909V21.2909ZM22.3554 14.0371C22.1764 13.9902 22.0212 14.0039 21.8948 14.0778C21.7255 14.177 21.6574 14.3563 21.6318 14.4546C21.6318 14.4546 21.6249 14.5013 21.6185 14.5448C21.5513 14.5258 21.4589 14.5 21.399 14.4832C21.4231 14.3912 21.5595 13.87 21.5595 13.87L21.2091 13.7789L20.9412 14.8023C20.9412 14.8023 21.9096 15.076 21.9253 15.076C21.8992 14.9011 21.9512 14.7203 21.9512 14.7203C21.9806 14.6074 22.0323 14.5245 22.0968 14.4865C22.141 14.4604 22.1919 14.4551 22.2516 14.4706C22.4593 14.5249 22.4173 14.7449 22.4019 14.8112C22.3687 14.9305 22.3024 15.0187 22.256 15.0831L22.1963 15.1593L22.6052 15.2807C22.6052 15.2807 22.6428 15.2168 22.6892 15.1133C22.7732 14.9186 22.8815 14.589 22.7246 14.3074C22.6472 14.1733 22.519 14.0798 22.3554 14.0371V14.0371ZM22.6627 14.8381C22.6627 14.8381 22.5942 15.0548 22.5477 15.1407C22.5013 15.1277 22.4483 15.1142 22.3864 15.0965C22.435 15.0304 22.4859 14.9515 22.5146 14.8408C22.5256 14.7961 22.5323 14.748 22.5323 14.7C22.5323 14.5528 22.4682 14.4067 22.2803 14.3574C22.1919 14.3342 22.1101 14.3437 22.0385 14.3855C21.9463 14.4394 21.8751 14.5479 21.838 14.6907C21.838 14.6909 21.804 14.8269 21.804 14.9235C21.6994 14.8941 21.172 14.7457 21.0834 14.7208C21.1072 14.6295 21.2684 14.0143 21.2927 13.9215C21.3378 13.933 21.3716 13.9418 21.4167 13.9538C21.3924 14.047 21.2571 14.5643 21.2571 14.5643C21.2571 14.5643 21.7197 14.6938 21.7197 14.6934C21.7197 14.6058 21.7449 14.484 21.7449 14.484C21.7659 14.4034 21.821 14.2564 21.9538 14.1788C22.0524 14.1211 22.1764 14.1114 22.3245 14.1503C22.4571 14.185 22.561 14.2597 22.6229 14.3664C22.6671 14.442 22.6914 14.5316 22.6914 14.6313C22.6914 14.6962 22.6804 14.7656 22.6627 14.8381V14.8381ZM21.7717 15.8585C21.4602 15.7088 21.1775 15.8014 21.0336 16.1005C21.0016 16.1673 20.9854 16.2325 20.9854 16.2968C20.9854 16.3173 20.9996 16.3372 21.0027 16.3578C20.9134 16.2904 20.8223 16.194 20.8223 16.068C20.8223 16.0276 20.8318 15.9842 20.8537 15.9385C20.9003 15.8419 20.9629 15.78 21.0232 15.7274L21.0805 15.6781L20.7567 15.4544L20.7222 15.4884C20.6333 15.5766 20.563 15.6754 20.5078 15.7904C20.3064 16.2101 20.5173 16.6082 21.0867 16.8814C21.5803 17.1179 21.92 17.0519 22.0968 16.684C22.2626 16.3379 22.1432 16.0373 21.7717 15.8585V15.8585ZM21.991 16.6334C21.844 16.9396 21.5727 16.9849 21.1373 16.776C20.8981 16.6611 20.55 16.4354 20.55 16.0972C20.55 16.0181 20.5692 15.9325 20.6132 15.841C20.6576 15.7437 20.7631 15.6109 20.7735 15.6109C20.7768 15.6144 20.8488 15.6602 20.8942 15.6914C20.8424 15.7422 20.79 15.8012 20.7483 15.8881C20.7193 15.9486 20.7052 16.0097 20.7052 16.0691C20.7052 16.2462 20.8301 16.413 21.0639 16.5368L21.0845 16.5477L21.1797 16.5132L21.1481 16.4539C21.09 16.3525 21.0871 16.2592 21.1388 16.1509C21.2549 15.91 21.4671 15.8419 21.7211 15.9639C21.9403 16.0689 22.1654 16.2705 21.991 16.6334ZM13.8129 21.1707L13.5408 23.0414L13.9953 22.9375C13.9953 22.9375 14.0417 22.6015 14.0503 22.5374C14.1153 22.5219 14.5545 22.4202 14.6197 22.407C14.6558 22.46 14.8412 22.7429 14.8412 22.7429L15.3195 22.6324L14.2526 21.0695L13.8129 21.1707V21.1707ZM14.894 22.6103C14.858 22.5551 14.6726 22.2743 14.6726 22.2743L13.9458 22.4423C13.9458 22.4423 13.8996 22.7761 13.8907 22.8402C13.847 22.8513 13.7597 22.8712 13.681 22.8888C13.7026 22.7407 13.9067 21.3385 13.917 21.2666C13.9716 21.254 14.1465 21.2138 14.2009 21.2012C14.2418 21.2611 15.041 22.4313 15.1261 22.5573C15.0428 22.575 14.94 22.5993 14.894 22.6103V22.6103ZM18.6862 18.4692L18.6214 19.1595L19.0063 19.2052C19.0063 19.2052 19.0228 19.0167 19.0323 18.9112C19.176 19.0512 19.8962 19.7518 19.8962 19.7518L20.2067 19.4324L18.9446 18.2037L18.6862 18.4692V18.4692ZM20.0416 19.4347C19.9985 19.4791 19.9371 19.5421 19.894 19.5865C19.8177 19.5122 18.9375 18.6557 18.9375 18.6557C18.9375 18.6557 18.9079 18.9919 18.9006 19.0748C18.848 19.0684 18.7989 19.0626 18.7483 19.0567C18.7569 18.9667 18.7954 18.5556 18.7987 18.5209C18.8182 18.501 18.8993 18.4177 18.9468 18.369C19.0217 18.442 19.9667 19.3617 20.0416 19.4347V19.4347ZM21.6762 16.1772C21.5626 16.123 21.4527 16.11 21.3665 16.1405C21.3033 16.1628 21.2538 16.2084 21.2233 16.2722C21.2049 16.31 21.1959 16.3489 21.1959 16.3874C21.1959 16.4139 21.2003 16.4405 21.2094 16.4661C21.2474 16.5746 21.3535 16.6445 21.4357 16.684C21.5405 16.7344 21.6433 16.7464 21.7253 16.7176C21.7907 16.6947 21.8426 16.6465 21.8756 16.5777C21.9463 16.4296 21.8663 16.2687 21.6762 16.1772ZM21.7701 16.5273C21.7505 16.5682 21.7233 16.5943 21.6866 16.6073C21.6342 16.6257 21.5628 16.6155 21.4863 16.5786H21.4861C21.3981 16.5364 21.3389 16.4827 21.3197 16.4274C21.3077 16.394 21.3108 16.3598 21.3287 16.3231C21.3462 16.2864 21.3712 16.2627 21.4054 16.2506C21.4616 16.2309 21.5416 16.2424 21.6256 16.2826C21.6609 16.2997 21.8347 16.3918 21.7701 16.5273V16.5273ZM20.1773 17.4097C20.1773 17.4097 20.1775 17.4097 20.1775 17.4099L20.1773 17.4097C20.115 17.3648 20.044 17.3458 19.9773 17.3567C19.9114 17.3673 19.8533 17.4049 19.8097 17.4659C19.7233 17.5863 19.7072 17.7596 19.8436 17.8575C19.9983 17.9687 20.1762 17.8505 20.2622 17.7937L20.2801 17.7815L20.2861 17.7607C20.2936 17.7349 20.2973 17.7055 20.2973 17.675C20.2973 17.5777 20.2589 17.4681 20.1773 17.4097V17.4097ZM20.1762 17.7083C20.0688 17.7771 19.981 17.8124 19.9119 17.7625C19.8226 17.6984 19.8652 17.5885 19.9046 17.5339C19.9298 17.499 19.9614 17.4776 19.9959 17.472C20.0323 17.4663 20.0714 17.4774 20.109 17.5043L20.1092 17.5045C20.1561 17.5381 20.1806 17.6109 20.1806 17.6745C20.1806 17.6867 20.178 17.6973 20.1762 17.7083V17.7083ZM20.3705 17.902L20.3515 17.9159L20.3473 17.9391C20.3413 17.9736 20.336 18.0123 20.336 18.0529C20.336 18.1467 20.3634 18.249 20.4687 18.3246C20.6011 18.4201 20.7841 18.3854 20.8853 18.2457C20.9863 18.1051 20.9638 17.9406 20.8312 17.8454C20.7034 17.7532 20.5484 17.7722 20.3705 17.902V17.902ZM20.7905 18.1772C20.7357 18.2532 20.6256 18.2936 20.5372 18.2298H20.537C20.4795 18.1887 20.453 18.1349 20.453 18.0543C20.453 18.0346 20.4565 18.0065 20.4596 17.9835C20.5845 17.8987 20.6831 17.8827 20.7629 17.9402C20.8592 18.0094 20.838 18.1113 20.7905 18.1772V18.1772ZM21.0117 17.5697C20.7598 17.3843 20.5425 17.5112 20.5425 17.5052C20.5425 17.3337 20.4404 17.1957 20.3312 17.1171C20.0708 16.9298 19.7719 17.0989 19.5911 17.3491C19.382 17.6396 19.4055 17.93 19.6519 18.1078C19.8858 18.2634 20.0924 18.1517 20.0918 18.1584C20.0902 18.1719 20.0885 18.1856 20.0885 18.1984C20.0885 18.3715 20.1519 18.5019 20.2803 18.5945C20.5507 18.789 20.8513 18.7121 21.084 18.3887C21.3115 18.0724 21.2845 17.7663 21.0117 17.5697V17.5697ZM20.9892 18.3206C20.8758 18.478 20.6417 18.7105 20.3486 18.4994C20.2233 18.4093 20.1824 18.2782 20.2164 18.0746L20.2202 18.0397L20.1616 17.9922L20.1258 18.0114C19.983 18.0949 19.8352 18.0954 19.7202 18.0127C19.4452 17.8149 19.6046 17.5306 19.686 17.4174C19.8327 17.2141 20.0681 17.0717 20.2629 17.2119C20.3632 17.2842 20.4561 17.4205 20.4154 17.5857L20.4052 17.6279L20.4731 17.6688L20.5058 17.6537C20.7047 17.5432 20.817 17.5742 20.9434 17.6648C21.2401 17.8783 21.0995 18.1674 20.9892 18.3206ZM16.7534 20.514C16.6047 20.4689 16.4389 20.4864 16.299 20.5617L16.0861 20.6753L16.673 21.7717L16.886 21.6574C17.0262 21.5825 17.1327 21.4538 17.1776 21.3051C17.2247 21.1497 17.2048 20.9844 17.1204 20.8268C17.0359 20.6692 16.909 20.5608 16.7534 20.514ZM17.0658 21.271C17.0297 21.3906 16.944 21.4936 16.8308 21.5544C16.8308 21.5544 16.7682 21.588 16.7209 21.6132C16.6739 21.5259 16.2912 20.8108 16.2444 20.7233C16.2921 20.6979 16.3542 20.6645 16.3542 20.6645C16.467 20.604 16.6002 20.5898 16.7196 20.6261C16.8449 20.6636 16.9479 20.7523 17.0173 20.882C17.0627 20.9662 17.0856 21.0529 17.0856 21.1375C17.0856 21.1829 17.0788 21.2275 17.0658 21.271V21.271ZM6.28147 19.34C6.28147 19.34 5.80469 19.9143 5.60819 20.1508C5.67958 19.8363 5.8699 18.9979 5.8699 18.9979L5.48661 18.6796L4.36042 20.0352L4.69286 20.3109C4.69286 20.3109 5.17075 19.7353 5.36681 19.4994C5.29608 19.8133 5.10643 20.6543 5.10643 20.6543L5.48772 20.9711L6.61391 19.6152L6.28147 19.34V19.34ZM5.47247 20.8066C5.41367 20.7578 5.27464 20.6422 5.2364 20.6104C5.25121 20.5441 5.539 19.2616 5.539 19.2616L5.46296 19.201C5.46296 19.201 4.74525 20.0648 4.67739 20.1464C4.63141 20.1082 4.57129 20.0582 4.52509 20.02C4.59207 19.9393 5.43489 18.9247 5.50187 18.844C5.56088 18.8931 5.70146 19.01 5.73993 19.0421C5.72489 19.1082 5.43533 20.3873 5.43533 20.3873L5.51049 20.4521C5.51049 20.4521 6.22931 19.5861 6.29694 19.5045C6.34292 19.5427 6.40304 19.5927 6.44924 19.6309C6.38227 19.7114 5.53944 20.7262 5.47247 20.8066V20.8066ZM3.63254 16.5998C3.70327 16.3976 3.68293 16.1712 3.57396 15.9453C3.46322 15.7166 3.29899 15.5585 3.09851 15.4884C2.88542 15.4142 2.6383 15.4398 2.38455 15.5623C1.87676 15.8078 1.70494 16.2577 1.93617 16.7362C2.04419 16.9603 2.20794 17.116 2.40953 17.1865C2.62813 17.2627 2.87835 17.2377 3.13365 17.1148C3.38475 16.9937 3.55738 16.8156 3.63254 16.5998V16.5998ZM2.44821 17.0759C2.27624 17.016 2.1357 16.881 2.0415 16.6851C1.8386 16.2654 1.98582 15.885 2.43539 15.6677C2.66085 15.559 2.8768 15.5351 3.06005 15.599C3.23312 15.6593 3.37038 15.7928 3.46853 15.9962C3.52732 16.1177 3.55694 16.2384 3.55694 16.3536C3.55694 16.4254 3.54545 16.4951 3.52224 16.5614C3.45725 16.7473 3.3054 16.9022 3.08281 17.0094C2.85625 17.1188 2.63676 17.142 2.44821 17.0759V17.0759ZM4.80714 17.9146L4.01516 18.5375C3.73178 18.7598 3.60225 18.6701 3.52091 18.5669C3.47052 18.5028 3.44952 18.4413 3.45681 18.3794C3.46742 18.2908 3.53793 18.1951 3.66613 18.0941L4.45834 17.4709L4.18292 17.1204L3.31092 17.8065C3.14117 17.9398 3.04546 18.089 3.02645 18.2494C3.00589 18.4207 3.07287 18.6058 3.22582 18.7996C3.37834 18.9937 3.54235 19.1024 3.71344 19.123C3.87391 19.1422 4.04102 19.0843 4.21055 18.9508L5.08255 18.2654L4.80714 17.9146V17.9146ZM4.13827 18.8588C3.99416 18.9725 3.85579 19.0222 3.72736 19.0067C3.58811 18.9901 3.4504 18.896 3.31756 18.7273C3.1993 18.5772 3.13962 18.4371 3.13962 18.3098C3.13962 18.2943 3.1405 18.2786 3.14227 18.2634C3.15774 18.1347 3.23865 18.0118 3.3832 17.8984C3.3832 17.8984 3.99305 17.4186 4.16325 17.2844C4.20149 17.3332 4.25587 17.4024 4.29433 17.451C4.21321 17.5147 3.59363 18.0021 3.59363 18.0021C3.43802 18.1246 3.35535 18.2433 3.34077 18.3655C3.33922 18.3781 3.33855 18.3907 3.33855 18.4035C3.33855 18.4835 3.36884 18.5629 3.42918 18.6391C3.59275 18.8471 3.81423 18.8436 4.08721 18.6294C4.08721 18.6294 4.62898 18.2032 4.78769 18.0786C4.82571 18.1274 4.8803 18.1968 4.91854 18.2455C4.83654 18.31 4.13827 18.8588 4.13827 18.8588ZM3.34054 16.0581C3.28175 15.936 3.19134 15.8532 3.07242 15.8114C2.91969 15.7581 2.72318 15.78 2.53397 15.8713C2.33437 15.9677 2.1949 16.1054 2.14141 16.2592C2.12483 16.3072 2.11636 16.3558 2.11636 16.4051C2.11636 16.4769 2.13416 16.5499 2.1697 16.6235C2.22938 16.7473 2.31956 16.8308 2.4376 16.8721C2.59122 16.9256 2.78551 16.9022 2.98489 16.8058C3.1741 16.7148 3.31314 16.5746 3.36663 16.4221C3.40818 16.3027 3.39934 16.1803 3.34054 16.0581ZM3.25611 16.3834C3.213 16.5072 3.09541 16.6228 2.93405 16.7006C2.7654 16.7822 2.59852 16.8045 2.47606 16.7616C2.38853 16.7311 2.32089 16.6675 2.27513 16.5726H2.27491C2.22916 16.4778 2.2212 16.3852 2.25193 16.2977C2.29459 16.1752 2.41572 16.0581 2.58481 15.9765C2.74639 15.8987 2.91018 15.8786 3.03396 15.9219C3.1226 15.9528 3.19046 16.0156 3.23511 16.1089C3.2802 16.2022 3.28727 16.2946 3.25611 16.3834V16.3834ZM2.06939 15.097L2.43362 15.0008C2.43362 15.0008 2.31559 14.5552 2.29171 14.465C2.36046 14.4465 2.50148 14.4093 2.57044 14.3912C2.59454 14.4827 2.71942 14.9542 2.71942 14.9542L3.08281 14.8578L2.82 13.8638L1.11651 14.3145L1.23057 14.7453C1.23057 14.7453 1.83272 14.5862 1.92824 14.561C1.95198 14.6514 2.06939 15.097 2.06939 15.097V15.097ZM1.25942 14.3976C1.3607 14.3706 2.63565 14.0333 2.73666 14.0066C2.7612 14.0988 2.91549 14.6828 2.94002 14.7749C2.89206 14.7875 2.85072 14.7986 2.80253 14.8114C2.77822 14.7199 2.65333 14.2482 2.65333 14.2482L2.14874 14.3817C2.14874 14.3817 2.26651 14.8271 2.29061 14.9175C2.24242 14.9303 2.20087 14.9414 2.15272 14.954C2.1289 14.8636 2.01137 14.4179 2.01137 14.4179C2.01137 14.4179 1.40913 14.5771 1.31372 14.6023C1.29783 14.5426 1.27529 14.4573 1.25942 14.3976V14.3976ZM8.47016 22.5131L9.51567 22.8181L9.62133 22.4578C9.62133 22.4578 9.09658 22.3053 9.00397 22.2766C9.02541 22.2036 9.07912 22.0193 9.10056 21.9461C9.19141 21.9726 9.66222 22.1108 9.66222 22.1108L9.76722 21.7489C9.76722 21.7489 9.29662 21.6117 9.20556 21.5849C9.22567 21.5166 9.26678 21.3765 9.28668 21.3082C9.37907 21.3354 9.89984 21.4872 9.89984 21.4872L10.0059 21.1258L8.96462 20.8217L8.47016 22.5131ZM9.86072 21.2054C9.84679 21.2529 9.83463 21.2945 9.82071 21.3422C9.72809 21.3153 9.20732 21.1632 9.20732 21.1632L9.06055 21.6645C9.06055 21.6645 9.53159 21.8018 9.62221 21.8283C9.60851 21.876 9.59657 21.9174 9.58243 21.9651C9.49158 21.9386 9.02099 21.8011 9.02099 21.8011L8.85919 22.3561C8.85919 22.3561 9.38349 22.5109 9.47633 22.5374C9.4624 22.586 9.45025 22.6258 9.43632 22.6744C9.3437 22.6457 8.708 22.46 8.61538 22.4335C8.64478 22.334 9.01458 21.0672 9.04398 20.9667C9.13659 20.9939 9.7681 21.1782 9.86072 21.2054V21.2054ZM11.1646 21.5586L10.9239 21.5398L10.8242 22.7783L11.0652 22.7982C11.2234 22.8115 11.3823 22.7606 11.5006 22.6612C11.6244 22.5551 11.6973 22.4048 11.7117 22.2257C11.7442 21.8241 11.454 21.5823 11.1646 21.5586ZM11.5952 22.2169C11.5833 22.365 11.5245 22.4865 11.425 22.5705C11.33 22.6523 11.2022 22.6921 11.0744 22.6811C11.0744 22.6811 11.0037 22.6766 10.9502 22.6722C10.9582 22.5728 11.0232 21.7644 11.0309 21.6656C11.0851 21.6696 11.1553 21.6751 11.1553 21.6751C11.3812 21.6937 11.5974 21.867 11.5974 22.166C11.5974 22.1815 11.5968 22.1992 11.5952 22.2169V22.2169ZM11.1224 21.2954L10.6169 21.2549L10.4756 23.0104L10.9807 23.0524C11.646 23.1055 12.007 22.8358 12.0539 22.2545C12.1005 21.6716 11.7871 21.3489 11.1224 21.2954ZM11.9374 22.2456C11.896 22.7584 11.5864 22.9839 10.9902 22.9353C10.9902 22.9353 10.7183 22.9132 10.6016 22.9043C10.6098 22.8004 10.7157 21.485 10.7239 21.3807C10.8123 21.3878 11.1131 21.4119 11.1131 21.4119C11.6695 21.4565 11.9414 21.6972 11.9414 22.1461C11.9414 22.1771 11.94 22.2102 11.9374 22.2456V22.2456ZM14.0591 21.4545L13.9643 22.292L14.5916 22.1461L14.1418 21.4331L14.0591 21.4545ZM14.1509 21.6665C14.2388 21.806 14.3533 21.9877 14.4051 22.0688C14.3177 22.0887 14.1858 22.1196 14.0985 22.1395C14.1091 22.0438 14.1327 21.8305 14.1509 21.6665V21.6665ZM7.5986 20.2001L7.14834 19.9678L6.34022 21.5345L6.79159 21.7668C7.38441 22.071 7.82074 21.9633 8.08864 21.4443C8.35654 20.9247 8.19165 20.506 7.5986 20.2001ZM7.98476 21.3906C7.74935 21.8473 7.37646 21.9362 6.84508 21.6627C6.84508 21.6627 6.60216 21.5378 6.49782 21.4839C6.54601 21.3911 7.15055 20.2185 7.19874 20.1254C7.27743 20.1659 7.54511 20.304 7.54511 20.304C7.91203 20.4934 8.09417 20.7215 8.09417 20.9952C8.09417 21.1176 8.0577 21.2494 7.98476 21.3906V21.3906ZM7.53649 20.4598L7.32186 20.3489L6.75136 21.4545L6.96665 21.565C7.10789 21.638 7.27389 21.6526 7.42221 21.605C7.57672 21.5555 7.7016 21.4459 7.78339 21.287C7.86539 21.1278 7.88286 20.962 7.83334 20.8073C7.78604 20.6592 7.67773 20.5328 7.53649 20.4598V20.4598ZM7.6795 21.2335C7.61208 21.3639 7.51085 21.4541 7.38662 21.4939C7.2677 21.5319 7.1342 21.5202 7.02014 21.4611C7.02014 21.4611 6.95692 21.4286 6.90896 21.4039C6.95449 21.3157 7.32672 20.5949 7.37203 20.5065C7.42022 20.5315 7.483 20.5637 7.483 20.5637C7.59705 20.6225 7.68414 20.7242 7.72194 20.8429C7.73653 20.8886 7.74382 20.9357 7.74382 20.9837C7.74382 21.0661 7.72216 21.1506 7.6795 21.2335V21.2335ZM11.0809 14.7723C11.082 14.7721 10.8711 14.7919 10.8711 14.7919L10.2628 14.8481L9.72411 14.866L9.72279 15.0534L10.1766 15.0404L10.7902 14.9915C11.3587 14.9283 11.5629 14.952 11.5649 14.952L11.6045 14.9571V14.7709L11.5735 14.7676C11.5636 14.7663 11.3326 14.74 11.0809 14.7723V14.7723ZM11.0809 15.3859C11.082 15.3854 10.8315 15.4091 10.8315 15.4091L10.2628 15.4615C10.2626 15.4615 9.72411 15.4798 9.72411 15.4798L9.72279 15.6673L10.1766 15.6542L10.7902 15.6056C11.3589 15.5422 11.5632 15.5651 11.5651 15.5654L11.6045 15.5702V15.3846L11.5735 15.381C11.5636 15.3797 11.3326 15.3536 11.0809 15.3859V15.3859ZM11.0809 15.7356C11.0824 15.7356 10.7018 15.7707 10.7018 15.7707L10.2628 15.8109C10.2626 15.8109 9.72411 15.8291 9.72411 15.8291L9.72279 16.0163L10.1766 16.0032L10.7902 15.9548C11.3589 15.8918 11.5632 15.9148 11.5649 15.915L11.6045 15.9199V15.7336L11.5733 15.73C11.5636 15.7289 11.3326 15.7033 11.0809 15.7356V15.7356ZM11.0809 14.4195C11.0822 14.4193 10.7701 14.4482 10.7701 14.4482L10.263 14.4942C10.2628 14.4942 9.72433 14.5123 9.72433 14.5123L9.72279 14.7002L10.1766 14.687L10.7902 14.6381C11.3587 14.5751 11.5632 14.5983 11.5649 14.5985L11.6045 14.6032V14.4173L11.5735 14.4137C11.5636 14.4124 11.3326 14.3866 11.0809 14.4195V14.4195ZM11.0809 12.8459C11.082 12.8457 10.8386 12.8685 10.8386 12.8685L10.2628 12.9213L9.72411 12.9396L9.72279 13.1271L10.1766 13.1138L10.7902 13.0645C11.3587 13.0022 11.5632 13.0256 11.5649 13.0258L11.6045 13.0305V12.8444L11.5733 12.8408C11.5636 12.8395 11.3326 12.8139 11.0809 12.8459V12.8459ZM11.0809 12.496C11.0822 12.4958 10.7926 12.523 10.7926 12.523L10.2628 12.572L9.72411 12.5902L9.72279 12.7778L10.1768 12.7641L10.7902 12.7153C11.3589 12.6529 11.5632 12.6759 11.5651 12.6762L11.6045 12.6808V12.4945L11.5733 12.4911C11.5636 12.4898 11.3326 12.4642 11.0809 12.496V12.496ZM11.0809 13.4586C11.082 13.4584 10.8543 13.4794 10.8543 13.4794L10.263 13.5333C10.2628 13.5333 9.72433 13.5519 9.72433 13.5519L9.72279 13.7396L10.1764 13.7268C10.1766 13.7268 10.7902 13.6775 10.7902 13.6775C11.3587 13.6147 11.5629 13.6383 11.5649 13.6386L11.6045 13.6436V13.4569L11.5735 13.4533C11.5636 13.4522 11.3326 13.4259 11.0809 13.4586V13.4586ZM11.0809 13.8083C11.0824 13.8081 10.6505 13.8481 10.6505 13.8481L10.2623 13.8839C10.2617 13.8839 9.72411 13.9014 9.72411 13.9014L9.72279 14.0888L10.1764 14.0762L10.7902 14.0271C11.3589 13.9642 11.5632 13.9869 11.5651 13.9871L11.6045 13.992V13.8061L11.5735 13.8026C11.5636 13.8015 11.3326 13.7752 11.0809 13.8083V13.8083ZM13.215 13.0645C13.2154 13.0645 13.8295 13.1138 13.8295 13.1138L14.2835 13.1271L14.2817 12.9396L13.743 12.9213L12.923 12.8457C12.6734 12.8139 12.4411 12.8395 12.4314 12.8408L12.4 12.8444V13.0305L12.4396 13.0258C12.4416 13.0256 12.6471 13.0022 13.215 13.0645V13.0645ZM13.215 12.7148C13.2154 12.7153 13.8295 12.7641 13.8295 12.7641L14.2835 12.7778L14.2817 12.5902L13.7433 12.572L12.923 12.4958C12.6734 12.4642 12.4409 12.4898 12.4314 12.4911L12.4 12.4945V12.6808L12.4396 12.6762C12.4416 12.6759 12.6471 12.6529 13.215 12.7148V12.7148ZM13.215 14.6379C13.2154 14.6381 13.8295 14.687 13.8295 14.687L14.2835 14.7002L14.2817 14.5123L13.7433 14.4942C13.7428 14.4942 12.9228 14.4193 12.9228 14.4193C12.6734 14.3866 12.4411 14.4124 12.4314 14.4137L12.4 14.4173V14.6032L12.4396 14.5985C12.4416 14.5983 12.6471 14.5751 13.215 14.6379V14.6379ZM6.73566 6.3635V13.5497C6.73566 17.5286 11.9257 19.8361 11.978 19.859L12.0019 19.8694L12.0256 19.8588C12.0777 19.8354 17.2377 17.4906 17.2377 13.679L17.237 6.36328L6.73566 6.3635V6.3635ZM6.85348 6.48131C6.96886 6.48131 17.0038 6.48087 17.1194 6.48087C17.1194 6.54608 17.1196 8.82212 17.1196 10.7975H6.85348V6.48131ZM12.0979 12.2624C12.1067 12.2427 12.1471 12.1748 12.3087 12.1366C12.3089 12.1366 12.5561 12.0869 12.8271 12.1165C12.8288 12.1167 13.2435 12.1589 13.2435 12.1589L13.8777 12.2113L14.4442 12.2162C14.4442 12.2162 14.5182 12.2166 14.5859 12.2171C14.5859 12.3923 14.5868 16.2068 14.5868 16.381C14.4557 16.3825 14.0538 16.3867 14.0538 16.3867L13.2355 16.3366L12.492 16.2968C12.2855 16.2972 12.173 16.3845 12.0979 16.463V12.2624ZM11.9091 19.6972C11.1845 19.3531 6.85348 17.1436 6.85348 13.5497V11.0798H11.9097V12.0117C11.8684 11.9889 11.8171 11.9688 11.7519 11.9536C11.7382 11.9507 11.4712 11.8963 11.171 11.9297L10.7539 11.9717L10.1364 12.0232C10.1359 12.0232 9.57425 12.0281 9.57425 12.0281L9.24269 12.0296L9.24379 12.1233V12.202H8.8163V12.6302H8.27476V13.3567H8.8163V14.1965H8.27476V14.9235H8.8163V15.7628H8.27476V16.4897H8.8163V16.9265H11.5999C11.6434 17.0136 11.7409 17.11 11.9091 17.1387V19.6972ZM11.9097 12.2458V16.4657C11.8401 16.3881 11.73 16.2972 11.5256 16.2968L10.7824 16.3366L9.9635 16.3867C9.9635 16.3867 9.60232 16.383 9.43124 16.381C9.43124 16.2068 9.4319 12.3923 9.43212 12.2171C9.49998 12.2166 9.57403 12.2162 9.57403 12.2162L10.1406 12.2113L10.774 12.1589L11.19 12.1167C11.4613 12.0869 11.709 12.1368 11.7113 12.1373C11.8395 12.1675 11.8901 12.2171 11.9097 12.2458V12.2458ZM8.81365 12.8183V13.1684H8.46308V12.8183H8.81365ZM8.81365 14.3846V14.7351H8.46308V14.3846H8.81365ZM8.81365 15.9509V16.3014H8.46308V15.9509H8.81365ZM12.0015 16.9632C11.7972 16.963 11.7579 16.8271 11.7541 16.8116L11.7365 16.7397L9.00441 16.7384V12.3904H9.24357L9.24291 16.5671L9.9677 16.5748L10.7995 16.524L11.5251 16.4849C11.6854 16.4853 11.7462 16.5603 11.805 16.6328C11.8518 16.6905 11.9049 16.7561 11.9984 16.7561C12.0899 16.7561 12.1458 16.6922 12.1951 16.6359C12.2594 16.5618 12.3264 16.4853 12.4922 16.4849L13.2185 16.524L14.0496 16.5748C14.0501 16.5748 14.7788 16.5671 14.7788 16.5671L14.7751 16.4741L14.7742 12.3904H15.0085V16.7384H12.2791L12.2594 16.808C12.2548 16.824 12.2093 16.963 12.0015 16.9632V16.9632ZM12.0972 19.6948V17.1383C12.265 17.1089 12.3646 17.0127 12.4106 16.9265H15.1968V16.4897H15.7353V15.7628H15.1968V14.9235H15.7353V14.1965H15.1968V13.3567H15.7353V12.6302H15.1968V12.202H14.7742V12.0296L14.444 12.0281L13.8819 12.0232L13.2636 11.9717L12.8458 11.9295C12.5457 11.8963 12.2789 11.9509 12.2681 11.9529C12.196 11.9699 12.1418 11.9929 12.0979 12.0181V11.0798H17.1199C17.1199 12.4907 17.1201 13.679 17.1201 13.679C17.1201 17.112 12.8313 19.3389 12.0972 19.6948V19.6948ZM15.1968 16.3014V15.9509H15.5472V16.3014H15.1968ZM15.1968 14.7351V14.3846H15.5472V14.7351H15.1968ZM15.1968 13.1684V12.8183H15.5472V13.1684H15.1968ZM6.27391 5.86373L6.27369 13.6019C6.27369 17.8936 11.8892 20.3529 11.946 20.3774L12.0021 20.4015L12.0581 20.3769C12.2893 20.2759 17.7169 17.854 17.7169 13.74L17.7164 5.86329L6.27391 5.86373V5.86373ZM12.001 20.0925C11.4663 19.8489 6.55596 17.5039 6.55596 13.6019C6.55596 13.6019 6.5564 6.41787 6.5564 6.146C6.82806 6.146 17.1625 6.14578 17.4342 6.14578C17.4342 6.41787 17.4346 13.74 17.4346 13.74C17.4346 17.4738 12.5353 19.8453 12.001 20.0925ZM11.9993 3.31559C7.21112 3.31559 3.31552 7.2114 3.31552 12C3.31552 16.7886 7.21112 20.6842 11.9993 20.6842C16.7879 20.6842 20.6835 16.7886 20.6835 12C20.6835 7.2114 16.7879 3.31559 11.9993 3.31559ZM11.9993 20.4019C7.36673 20.4019 3.59801 16.633 3.59801 12C3.59801 7.36724 7.36673 3.59786 11.9993 3.59786C16.6323 3.59786 20.4012 7.36724 20.4012 12C20.4012 16.633 16.6323 20.4019 11.9993 20.4019ZM13.215 14.9876C13.2154 14.9878 13.8293 15.0364 13.8293 15.0364C13.8295 15.0364 14.2835 15.0506 14.2835 15.0506L14.2817 14.8625L13.7433 14.8437C13.7428 14.8437 12.9228 14.7685 12.9228 14.7685C12.6734 14.736 12.4411 14.7614 12.4314 14.7628L12.4 14.7663V14.9533L12.4396 14.9484C12.4416 14.9482 12.6471 14.9248 13.215 14.9876V14.9876ZM13.215 13.6772C13.2154 13.6775 13.8293 13.7268 13.8293 13.7268C13.8295 13.7268 14.2835 13.7396 14.2835 13.7396L14.2817 13.5519L13.7433 13.5333C13.743 13.5333 12.923 13.4584 12.923 13.4584C12.6734 13.4259 12.4409 13.4522 12.4312 13.4533L12.4 13.4569V13.6436L12.4396 13.6386C12.4418 13.6383 12.6471 13.6149 13.215 13.6772V13.6772ZM13.215 14.0269C13.2154 14.0271 13.8295 14.0762 13.8295 14.0762L14.2835 14.0888L14.2817 13.9014L13.7428 13.8839L12.9225 13.8081C12.6734 13.7752 12.4411 13.8015 12.4312 13.8026L12.4 13.8061V13.992L12.4396 13.9871C12.4416 13.9869 12.6471 13.9642 13.215 14.0269V14.0269ZM13.215 15.9546C13.2154 15.9548 13.8293 16.0032 13.8293 16.0032C13.8295 16.0032 14.2835 16.0163 14.2835 16.0163L14.2817 15.8291L13.7428 15.8109L12.9225 15.7356C12.6734 15.7033 12.4411 15.7289 12.4314 15.73L12.4 15.7336V15.9199L12.4396 15.915C12.4416 15.9148 12.6471 15.8918 13.215 15.9546V15.9546ZM13.215 15.6056C13.2154 15.6056 13.8293 15.6542 13.8293 15.6542C13.8295 15.6542 14.2835 15.6673 14.2835 15.6673L14.2817 15.4798L13.7428 15.4615L12.923 15.3854C12.6734 15.3536 12.4411 15.3797 12.4312 15.381L12.4 15.3846V15.5702L12.4396 15.5654C12.4416 15.5651 12.6471 15.5422 13.215 15.6056V15.6056ZM0.305631 12.0004C0.305631 18.4486 5.55133 23.6956 11.9993 23.6956C18.4476 23.6956 23.6949 18.4486 23.6949 12.0004C23.6949 5.55228 18.4476 0.306581 11.9993 0.306581C5.55133 0.306581 0.305631 5.55228 0.305631 12.0004V12.0004ZM0.587964 12.0004C0.587964 5.70812 5.70701 0.588849 11.9993 0.588849C18.2921 0.588849 23.412 5.70812 23.412 12.0004C23.412 18.293 18.2921 23.4127 11.9993 23.4127C5.70701 23.4127 0.587964 18.293 0.587964 12.0004V12.0004ZM2.98138 12.0004C2.98138 16.9732 7.02684 21.0188 11.9993 21.0188C16.9723 21.0188 21.0182 16.9732 21.0182 12C21.0182 7.02728 16.9723 2.98138 11.9993 2.98138C7.02684 2.98138 2.98138 7.02728 2.98138 12.0004ZM3.09897 12.0004C3.09897 7.09226 7.09182 3.09919 11.9993 3.09919C16.9075 3.09919 20.9004 7.09204 20.9004 12C20.9004 16.9082 16.9075 20.9015 11.9993 20.9015C7.09182 20.9015 3.09897 16.9084 3.09897 12.0004V12.0004ZM0 12.0004C0 18.6173 5.38275 24.0007 11.9993 24.0007C18.6164 24.0007 24 18.6173 24 12.0004C24 5.38341 18.6164 0 11.9993 0C5.38319 0 0 5.38341 0 12.0004V12.0004ZM0.117796 12.0004C0.117796 5.44817 5.44794 0.117593 11.9993 0.117593C18.5514 0.117593 23.8828 5.44817 23.8828 12.0004C23.8828 18.5525 18.5514 23.8835 11.9993 23.8835C5.44794 23.8835 0.117796 18.5525 0.117796 12.0004V12.0004Z" fill="#576A74"/>
</svg>
