<svg width="16" height="22" viewBox="0 0 16 22" fill="none" xmlns="http://www.w3.org/2000/svg">
<path fill-rule="evenodd" clip-rule="evenodd" d="M4.39 0H11.41C13.83 0 15.8 1.91499 15.8 4.21399C15.8 5.55799 15.126 6.772 14.082 7.547C15.126 8.323 15.8 9.53601 15.8 10.881C15.8 13.179 13.83 15.094 11.41 15.094C10.424 15.094 9.513 14.777 8.78 14.245V17.547C8.78 19.846 6.811 21.761 4.39 21.761C1.97 21.761 0 19.846 0 17.547C0 16.203 0.673987 14.99 1.71799 14.214C0.673987 13.438 0 12.225 0 10.881C0 9.53601 0.673987 8.323 1.71799 7.547C0.673987 6.772 0 5.55799 0 4.21399C0 1.91499 1.97 0 4.39 0ZM7.01999 15.094H4.39C2.96 15.094 1.75999 16.189 1.75999 17.547C1.75999 18.906 2.96 20 4.39 20C5.821 20 7.01999 18.906 7.01999 17.547V15.094ZM8.78 10.881C8.78 9.52201 9.97899 8.427 11.41 8.427C12.84 8.427 14.04 9.52201 14.04 10.881C14.04 12.239 12.84 13.334 11.41 13.334C9.97899 13.334 8.78 12.239 8.78 10.881ZM4.35699 8.42801C2.94099 8.44401 1.75999 9.53301 1.75999 10.881C1.75999 12.239 2.96 13.334 4.39 13.334H7.01999V8.427H4.39L4.35699 8.42801ZM7.01999 6.66699V1.76099H4.39C2.96 1.76099 1.75999 2.85499 1.75999 4.21399C1.75999 5.57299 2.96 6.66699 4.39 6.66699H7.01999ZM8.78 6.66699H11.41C12.84 6.66699 14.04 5.57299 14.04 4.21399C14.04 2.85499 12.84 1.76099 11.41 1.76099H8.78V6.66699Z" fill="#90A1E5"/>
</svg>
