<svg width="69" height="69" viewBox="0 0 69 69" fill="none" xmlns="http://www.w3.org/2000/svg">
<path d="M64.3716 18.0266C61.2865 12.7407 57.1019 8.55583 51.8164 5.47108C46.5302 2.38618 40.7593 0.844116 34.4994 0.844116C28.2404 0.844116 22.4676 2.38665 17.1825 5.47108C11.8966 8.55568 7.71203 12.7407 4.62697 18.0266C1.54238 23.3123 0 29.0844 0 35.3426C0 42.8602 2.19328 49.6202 6.58094 55.6243C10.9681 61.6289 16.6357 65.7839 23.5832 68.0897C24.392 68.2398 24.9906 68.1342 25.3799 67.7756C25.7693 67.4166 25.9638 66.9669 25.9638 66.4285C25.9638 66.3387 25.956 65.5304 25.9411 64.0028C25.9257 62.4752 25.9184 61.1426 25.9184 60.0055L24.8852 60.1843C24.2264 60.3049 23.3954 60.3561 22.392 60.3416C21.3892 60.3276 20.3481 60.2225 19.2702 60.0271C18.1918 59.8334 17.1888 59.3842 16.2603 58.6804C15.3323 57.9767 14.6736 57.0555 14.2842 55.9182L13.835 54.8845C13.5355 54.1963 13.0642 53.4318 12.4202 52.5938C11.7762 51.7551 11.125 51.1865 10.4662 50.8871L10.1517 50.6619C9.94213 50.5123 9.74766 50.3318 9.56782 50.1224C9.38814 49.913 9.25362 49.7034 9.16378 49.4935C9.07378 49.2835 9.14836 49.1112 9.3883 48.976C9.62824 48.8409 10.0619 48.7753 10.6911 48.7753L11.5891 48.9095C12.1881 49.0295 12.929 49.3881 13.8128 49.9874C14.6961 50.5862 15.4222 51.3647 15.9913 52.3226C16.6804 53.5508 17.5107 54.4866 18.4844 55.1306C19.4574 55.7746 20.4384 56.096 21.4265 56.096C22.4145 56.096 23.2679 56.0211 23.987 55.8721C24.7052 55.7223 25.3791 55.4972 26.0083 55.1979C26.2778 53.1906 27.0116 51.6486 28.2091 50.5706C26.5023 50.3913 24.9678 50.1211 23.6048 49.7619C22.2426 49.4023 20.8349 48.8185 19.3827 48.0092C17.9297 47.201 16.7243 46.1973 15.7663 45C14.8081 43.802 14.0217 42.2293 13.4083 40.2832C12.7945 38.3363 12.4875 36.0904 12.4875 33.545C12.4875 29.9208 13.6707 26.8367 16.0366 24.291C14.9283 21.5662 15.0329 18.5117 16.3508 15.1276C17.2193 14.8578 18.5072 15.0603 20.214 15.7339C21.9211 16.4077 23.171 16.985 23.9649 17.4636C24.7589 17.9421 25.395 18.3475 25.8742 18.6764C28.6599 17.898 31.5346 17.5088 34.4991 17.5088C37.4637 17.5088 40.339 17.898 43.1248 18.6764L44.8318 17.5988C45.9991 16.8798 47.3775 16.2208 48.9638 15.6218C50.551 15.0232 51.7647 14.8583 52.6036 15.1281C53.9507 18.5123 54.0708 21.5667 52.9622 24.2914C55.3279 26.8371 56.5115 29.922 56.5115 33.5455C56.5115 36.0909 56.2035 38.3438 55.5906 40.3057C54.977 42.2678 54.1839 43.839 53.2109 45.0225C52.2368 46.2058 51.0238 47.2016 49.5715 48.0097C48.119 48.8184 46.7108 49.4021 45.3486 49.7618C43.9858 50.1215 42.4513 50.3918 40.7445 50.5714C42.3012 51.9186 43.0797 54.045 43.0797 56.9497V66.4272C43.0797 66.9656 43.2669 67.4152 43.6417 67.7744C44.016 68.1329 44.6071 68.2385 45.4158 68.0882C52.3643 65.7828 58.0319 61.6277 62.4189 55.6231C66.8055 49.6189 68.9995 42.8589 68.9995 35.3414C68.9979 29.0839 67.4548 23.3123 64.3716 18.0266Z" fill="black"/>
</svg>
