<svg width="112" height="153" viewBox="0 0 112 153" fill="none" xmlns="http://www.w3.org/2000/svg">
<path d="M69.3765 0H10.4028C4.85953 0 0 4.8336 0 10.3664V141.64C0 147.166 4.85343 152.006 10.4089 152.006H100.597C106.147 152.006 111.006 147.172 111.006 141.64V41.4534L86.7268 24.1802L69.3765 0Z" fill="#546FD6"/>
<path d="M27.7471 110.547H83.2471V103.64H27.7532L27.7471 110.547ZM27.7471 124.366H69.3705V117.46H27.7471V124.366ZM27.7471 76V82.9069H83.2471V76H27.7471ZM27.7471 96.7267H83.2471V89.8198H27.7532L27.7471 96.7267Z" fill="#F1F1F1"/>
<path d="M69.376 0V31.0931C69.376 36.6198 74.2294 41.4534 79.7788 41.4534H110.999L69.376 0Z" fill="#90A1E5"/>
</svg>
