<svg width="659" height="662" viewBox="0 0 659 662" fill="none" xmlns="http://www.w3.org/2000/svg">
<path d="M0.808594 47.4221C0.808594 21.2453 22.5835 0 49.4288 0H610.021C636.875 0 658.641 21.2453 658.641 47.4221V614.587C658.641 640.772 636.875 662 610.021 662H49.4288C22.5835 662 0.808594 640.772 0.808594 614.595V47.4135V47.4221Z" fill="#006699"/>
<path d="M200.221 554.158V255.23H100.862V554.158H200.23H200.221ZM150.559 214.424C185.201 214.424 206.768 191.468 206.768 162.782C206.117 133.445 185.201 111.132 151.219 111.132C117.211 111.132 95.002 133.445 95.002 162.782C95.002 191.468 116.56 214.424 149.908 214.424H150.551H150.559ZM255.215 554.158H354.565V387.243C354.565 378.318 355.216 369.375 357.838 363.003C365.018 345.143 381.367 326.659 408.82 326.659C444.764 326.659 459.151 354.069 459.151 394.258V554.158H558.501V382.763C558.501 290.949 509.49 248.224 444.122 248.224C390.526 248.224 366.989 278.178 353.914 298.581H354.574V255.239H255.223C256.517 283.283 255.215 554.167 255.215 554.167V554.158Z" fill="white"/>
</svg>
