<svg width="658" height="662" viewBox="0 0 658 662" fill="none" xmlns="http://www.w3.org/2000/svg">
<path d="M0 47.4221C0 21.2453 21.7749 0 48.6202 0H609.212C636.066 0 657.832 21.2453 657.832 47.4221V614.587C657.832 640.772 636.066 662 609.212 662H48.6202C21.7749 662 0 640.772 0 614.595V47.4135V47.4221Z" fill="#959BA6"/>
<path d="M199.413 554.158V255.23H100.054V554.158H199.422H199.413ZM149.751 214.424C184.393 214.424 205.959 191.468 205.959 162.782C205.308 133.445 184.393 111.132 150.41 111.132C116.402 111.132 94.1934 133.445 94.1934 162.782C94.1934 191.468 115.751 214.424 149.099 214.424H149.742H149.751ZM254.406 554.158H353.756V387.243C353.756 378.318 354.407 369.375 357.029 363.003C364.21 345.143 380.558 326.659 408.011 326.659C443.956 326.659 458.342 354.069 458.342 394.258V554.158H557.692V382.763C557.692 290.949 508.681 248.224 443.313 248.224C389.718 248.224 366.18 278.178 353.105 298.581H353.765V255.239H254.415C255.708 283.283 254.406 554.167 254.406 554.167V554.158Z" fill="white"/>
</svg>
