<svg width="119" height="135" viewBox="0 0 119 135" fill="none" xmlns="http://www.w3.org/2000/svg">
<path d="M118.576 0L107.774 121.165L59.2157 134.643L10.7914 121.184L0 0H118.576Z" fill="#546FD6"/>
<path d="M59.2881 124.341L98.5255 113.449L107.757 9.90833H59.2881V124.341Z" fill="#90A1E5"/>
<path d="M38.2885 39.6341H59.2884V24.7715H22.0654L22.4205 28.7588L26.0693 69.7164H59.2884V54.8537H39.6453L38.2885 39.6341V39.6341ZM41.6342 77.1479H26.7325L28.8121 100.485L59.2201 108.936L59.2884 108.917V93.4537L59.2234 93.4709L42.6912 89.0015L41.6342 77.1479V77.1479Z" fill="#EBEBEB"/>
<path d="M59.2368 69.7164H77.5162L75.7927 88.9922L59.2363 93.4663V108.929L89.6685 100.485L89.8916 97.9734L93.3805 58.8448L93.7425 54.8537H59.2368V69.7164ZM59.2368 39.5978V39.6341H95.0933L95.3907 36.2937L96.0675 28.7588L96.4221 24.7715H59.2368V39.5983V39.5978Z" fill="white"/>
</svg>
