<svg width="61" height="24" viewBox="0 0 61 24" fill="none" xmlns="http://www.w3.org/2000/svg">
<path d="M0 0V1.64186H11.8004V0H0ZM13.4733 0V1.64186H30.291C30.291 1.64186 28.5732 0 26.2982 0H13.4733ZM33.5897 0V1.64186H43.7628L43.1593 0H33.5897ZM51.0582 0L50.4546 1.64186H60.5372V0H51.0582ZM0 3.19336V4.83523H11.8004V3.19336H0ZM13.4733 3.19566V4.83446H32.241C32.241 4.83446 32.022 3.5709 31.6398 3.19566H13.4733ZM33.5897 3.19566V4.83446H44.8871L44.3285 3.19566H33.5897ZM49.8503 3.19566L49.2916 4.83446H60.5364V3.19566H49.8503ZM3.39155 6.38673V8.03089H8.50247V6.38673H3.39155ZM16.8649 6.38673V8.03089H21.9758V6.38673H16.8649ZM26.9475 6.38673V8.03089H32.0584C32.0584 8.03089 32.3834 7.16248 32.3834 6.38673H26.9475ZM36.982 6.38673V8.03089H46.0355L45.4319 6.38673H36.982ZM48.7383 6.38673L48.1317 8.03089H57.2377V6.38673H48.7383ZM3.39232 9.58239V11.2243H8.50325V9.58239H3.39232ZM16.8657 9.58239V11.2243H29.9196C29.9196 11.2243 31.0107 10.3819 31.3589 9.58239H16.8657ZM36.982 9.58239V11.2243H42.093V10.3099L42.418 11.2243H51.7809L52.1291 10.3099V11.2243H57.24V9.58239H47.645L47.1358 10.9731L46.6251 9.58239H36.982ZM3.39155 12.7758V14.4176H8.50247V12.7758H3.39155ZM16.8649 12.7758V14.4176H31.3581C31.0099 13.6212 29.9188 12.7758 29.9188 12.7758H16.8649ZM36.9813 12.7758V14.4176H42.0922V12.7758H36.9813ZM43.0208 12.7758L43.6398 14.4176H50.6597L51.2478 12.7758H43.0208ZM52.1268 12.7758V14.4176H57.2377V12.7758H52.1268ZM3.3931 15.9691V17.611H8.50402V15.9691H3.3931ZM16.8664 15.9691V17.611H21.9774V15.9691H16.8664ZM26.949 15.9691V17.611H32.3841C32.3841 16.836 32.0592 15.9691 32.0592 15.9691H26.949ZM36.9836 15.9691V17.611H42.0945V15.9691H36.9836ZM44.183 15.9691L44.7819 17.611H49.4866L50.0902 15.9691H44.183ZM52.1283 15.9691V17.611H57.2393V15.9691H52.1283ZM0.0944029 19.1625V20.8066H11.8948V19.1625H0.0944029ZM13.4757 19.1625V20.8066H31.6428C32.0251 20.4299 32.2441 19.1625 32.2441 19.1625H13.4757ZM33.6841 19.1625V20.8066H42.0914V19.1625H33.6841ZM45.3452 19.1625L45.9612 20.8066H48.3553L48.9333 19.1625H45.3452ZM52.1283 19.1625V20.8066H60.6308V19.1625H52.1283ZM0.0944029 22.3581V24H11.8948V22.3581H0.0944029ZM13.4757 22.3581V23.9969H26.2982C28.5732 23.9969 30.291 22.3581 30.291 22.3581H13.4757ZM33.6841 22.3581V24H42.0914V22.3581H33.6841ZM46.5137 22.3581L47.1056 23.9954L47.2078 23.9977L47.809 22.3589L46.5137 22.3581ZM52.1291 22.3581V24H60.6316V22.3581H52.1291Z" fill="#576A74"/>
</svg>
