<svg width="109" height="109" viewBox="0 0 109 109" fill="none" xmlns="http://www.w3.org/2000/svg">
<path d="M99.1189 0H9.88111C4.42387 0 0 4.42387 0 9.88111V99.1189C0 104.576 4.42387 109 9.88111 109H99.1189C104.576 109 109 104.576 109 99.1189V9.88111C109 4.42387 104.576 0 99.1189 0Z" fill="#DC395F"/>
<path d="M36.4279 34.2946C40.0513 34.2946 43.0867 31.4546 43.0867 27.7324C43.0867 24.0128 40.0513 21.1733 36.4279 21.1733C32.8045 21.1733 29.7699 24.0128 29.7699 27.7324C29.7699 31.4542 32.8045 34.2946 36.4279 34.2946ZM22.6215 69.43C22.2302 71.0948 22.0339 72.8925 22.0339 74.3589C22.0339 80.1372 25.1672 83.973 31.826 83.973C37.3484 83.973 41.8255 80.6937 45.0491 75.3982L43.0807 83.2977H54.0467L60.3142 58.16C61.8811 51.7955 64.9165 48.4918 69.5192 48.4918C73.1421 48.4918 75.3941 50.7451 75.3941 54.4647C75.3941 55.5423 75.2962 56.7162 74.9045 57.9897L71.6728 69.5441C71.1831 71.2089 70.9881 72.8746 70.9881 74.4402C70.9881 79.9255 74.2185 83.9377 80.9752 83.9377C86.7527 83.9377 91.3545 80.2185 93.9007 71.3073L89.5926 69.6442C87.4382 75.6141 85.5775 76.6934 84.1086 76.6934C82.6396 76.6934 81.8562 75.715 81.8562 73.7577C81.8562 72.8763 82.0529 71.8983 82.3458 70.7206L85.48 59.4638C86.263 56.8205 86.5572 54.4766 86.5572 52.323C86.5572 43.9019 81.4649 39.507 75.2962 39.507C69.5192 39.507 63.6434 44.7181 60.7064 50.2026L62.86 40.3586H46.1165L43.7662 49.0292H51.6002L46.7761 68.3426C42.9879 76.7637 36.0293 76.9004 35.1561 76.7049C33.722 76.3813 32.8049 75.8368 32.8049 73.9735C32.8049 72.8984 33.0008 71.3541 33.4904 69.4922L40.8351 40.3586H22.2302L19.8799 49.0292H27.6151L22.6219 69.43" fill="white"/>
</svg>
