<svg width="64" height="64" viewBox="0 0 64 64" fill="none" xmlns="http://www.w3.org/2000/svg">
<path d="M63.9986 1.91494C63.995 1.40759 63.7918 0.922045 63.4331 0.563286C63.0743 0.204527 62.5888 0.00138338 62.0814 -0.00222778H1.91131C1.40396 0.00138338 0.918427 0.204527 0.559668 0.563286C0.200909 0.922045 -0.00224821 1.40759 -0.00585938 1.91494V62.085C-0.00224821 62.5924 0.200909 63.0779 0.559668 63.4367C0.918427 63.7955 1.40396 63.9986 1.91131 64.0022H46.7579L63.9986 46.7615V1.91494Z" fill="#90A1E5"/>
<path d="M47.2339 47.3304H63.4264L46.7581 63.9988H30.6553L47.2339 47.3304Z" fill="#546FD6"/>
<path d="M63.9986 46.7581H48.6681C48.1608 46.7617 47.6753 46.9648 47.3165 47.3236C46.9577 47.6823 46.7546 48.1679 46.751 48.6752V64.0057L63.9986 46.7581Z" fill="#B1C1FF"/>
<path d="M44.5513 22.5176V41.7755C44.5532 41.8638 44.5372 41.9517 44.5042 42.0337C44.4713 42.1157 44.4221 42.1902 44.3596 42.2527C44.2971 42.3152 44.2226 42.3644 44.1406 42.3973C44.0586 42.4303 43.9708 42.4463 43.8824 42.4444H38.8964C38.808 42.4463 38.7202 42.4303 38.6382 42.3973C38.5562 42.3644 38.4817 42.3152 38.4192 42.2527C38.3567 42.1902 38.3075 42.1157 38.2745 42.0337C38.2416 41.9517 38.2256 41.8638 38.2274 41.7755V32.1896L32.0966 40.7169L25.7727 31.8069V41.8651C25.7746 41.9535 25.7586 42.0413 25.7257 42.1233C25.6927 42.2054 25.6435 42.2798 25.581 42.3423C25.5185 42.4048 25.444 42.454 25.362 42.487C25.28 42.5199 25.1922 42.536 25.1038 42.5341H20.1212C20.0329 42.536 19.945 42.5199 19.863 42.487C19.781 42.454 19.7065 42.4048 19.644 42.3423C19.5815 42.2798 19.5323 42.2054 19.4994 42.1233C19.4664 42.0413 19.4504 41.9535 19.4523 41.8651V22.5176C19.4504 22.4292 19.4664 22.3414 19.4994 22.2594C19.5323 22.1774 19.5815 22.1029 19.644 22.0404C19.7065 21.9779 19.781 21.9287 19.863 21.8957C19.945 21.8628 20.0329 21.8468 20.1212 21.8487H24.528C24.7211 21.8487 24.9073 21.9452 25.1038 22.1349L31.907 31.5241L38.8033 22.1349C38.8998 21.9418 39.1826 21.8487 39.3791 21.8487H43.8824C44.0556 21.8614 44.2184 21.936 44.3412 22.0588C44.464 22.1816 44.5386 22.3444 44.5513 22.5176" fill="white"/>
</svg>
