<svg width="285" height="285" viewBox="0 0 285 285" fill="none" xmlns="http://www.w3.org/2000/svg">
<path fill-rule="evenodd" clip-rule="evenodd" d="M53.406 50.7191C62.2248 57.884 65.533 57.3374 82.0934 56.2324L238.213 46.8581C241.524 46.8581 238.771 43.5548 237.667 43.0059L211.739 24.2618C206.77 20.4047 200.152 15.9875 187.466 17.0925L36.2946 28.1184C30.7813 28.665 29.6803 31.4217 31.8757 33.6311L53.406 50.7191ZM62.7792 87.1029V251.368C62.7792 260.197 67.1908 263.499 77.1201 262.953L248.696 253.025C258.63 252.479 259.737 246.407 259.737 239.235V76.072C259.737 68.9121 256.983 65.0511 250.901 65.6022L71.603 76.072C64.9858 76.6281 62.7787 79.9381 62.7787 87.1029H62.7792ZM232.158 95.9144C233.258 100.88 232.158 105.842 227.183 106.4L218.916 108.048V229.319C211.739 233.176 205.12 235.382 199.604 235.382C190.774 235.382 188.562 232.624 181.948 224.36L127.873 139.469V221.603L144.985 225.464C144.985 225.464 144.985 235.382 131.179 235.382L93.121 237.59C92.0155 235.382 93.121 229.874 96.9815 228.771L106.913 226.018V117.421L93.1238 116.316C92.0177 111.35 94.7721 104.19 102.501 103.634L143.329 100.882L199.604 186.878V110.804L185.256 109.157C184.155 103.086 188.562 98.6777 194.08 98.1311L232.158 95.9144ZM23.602 13.2359L180.844 1.65608C200.154 -6.67329e-06 205.122 1.10945 217.259 9.92539L267.452 45.2042C275.734 51.2708 278.495 52.9224 278.495 59.5356V253.025C278.495 265.151 274.077 272.323 258.633 273.42L76.0274 284.447C64.4336 285 58.9159 283.348 52.8443 275.626L15.881 227.668C9.2583 218.839 6.50391 212.235 6.50391 204.509V32.5222C6.50391 22.6057 10.9228 14.3336 23.602 13.2359V13.2359Z" fill="#90A1E5"/>
</svg>
