<svg width="150" height="150" viewBox="0 0 150 150" fill="none" xmlns="http://www.w3.org/2000/svg">
<path d="M110.775 36.3281L87.5813 9.375L108.197 13.1344L110.775 36.3281ZM110.428 56.25L75 150L39.5813 56.25H110.428ZM42.7031 46.875L75 9.375L107.297 46.875H42.7031V46.875ZM36.1031 40.1344L33.2719 17.4188L61.6594 9.375L36.1031 40.1344ZM27.5063 46.875H0L24.6656 24.1594L27.5063 46.875ZM29.5594 56.25L59.1281 135.084L0 56.25H29.5594ZM120.431 56.25H150L90.8719 135.094L120.431 56.25ZM121.387 46.875L118.528 21.1031L150 46.875H121.387Z" fill="#90A1E5"/>
</svg>
