<svg width="95" height="95" viewBox="0 0 95 95" fill="none" xmlns="http://www.w3.org/2000/svg">
<g clip-path="url(#clip0)">
<path d="M35.0034 50.0769C29.4934 50.0769 25.0244 54.5458 25.0244 60.0558V85.0171C25.0244 90.5271 29.4934 94.996 35.0034 94.996C40.5134 94.996 44.9823 90.5271 44.9823 85.0171V60.0558C44.9784 54.5458 40.5094 50.0769 35.0034 50.0769Z" fill="#90A1E5"/>
<path d="M0.0751953 60.0558C0.0751953 65.5698 4.54811 70.0427 10.0621 70.0427C15.576 70.0427 20.0489 65.5698 20.0489 60.0558V50.069H10.07C10.066 50.069 10.066 50.069 10.0621 50.069C4.54811 50.069 0.0751953 54.5419 0.0751953 60.0558V60.0558Z" fill="#90A1E5"/>
<path d="M35.0153 -0.00396729C35.0114 -0.00396729 35.0074 -0.00396729 35.0035 -0.00396729C29.4895 -0.00396729 25.0166 4.46895 25.0166 9.98291C25.0166 15.4969 29.4895 19.9698 35.0035 19.9698H44.9824V9.98291C44.9824 9.97895 44.9824 9.97103 44.9824 9.96312C44.9785 4.45707 40.5174 -0.00396729 35.0153 -0.00396729V-0.00396729Z" fill="#90A1E5"/>
<path d="M9.99469 45.0062H35.0034C40.5174 45.0062 44.9903 40.5333 44.9903 35.0194C44.9903 29.5054 40.5174 25.0325 35.0034 25.0325H9.99469C4.48073 25.0325 0.0078125 29.5054 0.0078125 35.0194C0.0078125 40.5333 4.48073 45.0062 9.99469 45.0062V45.0062Z" fill="#90A1E5"/>
<path d="M84.9339 25.0285C79.4278 25.0285 74.9668 29.4896 74.9668 34.9956V35.0154V45.0023H84.9458C90.4597 45.0023 94.9326 40.5294 94.9326 35.0154C94.9326 29.5014 90.4597 25.0285 84.9458 25.0285C84.9418 25.0285 84.9378 25.0285 84.9339 25.0285V25.0285Z" fill="#90A1E5"/>
<path d="M50.0371 9.9829V35.0194C50.0371 40.5294 54.5061 44.9983 60.0161 44.9983C65.5261 44.9983 69.995 40.5294 69.995 35.0194V9.9829C69.995 4.4729 65.5261 0.00393677 60.0161 0.00393677C54.5061 0.00393677 50.0371 4.4729 50.0371 9.9829V9.9829Z" fill="#90A1E5"/>
<path d="M69.9911 85.0092C69.9911 79.4992 65.5222 75.0302 60.0122 75.0302H50.0332V85.0171C50.0372 90.5231 54.5022 94.9881 60.0122 94.9881C65.5222 94.9881 69.9911 90.5192 69.9911 85.0092Z" fill="#90A1E5"/>
<path d="M85.021 50.069H60.0123C54.4983 50.069 50.0254 54.5419 50.0254 60.0558C50.0254 65.5698 54.4983 70.0427 60.0123 70.0427H85.021C90.535 70.0427 95.0079 65.5698 95.0079 60.0558C95.0079 54.5419 90.535 50.069 85.021 50.069V50.069Z" fill="#90A1E5"/>
</g>
<defs>
<clipPath id="clip0">
<rect width="95" height="95" fill="white"/>
</clipPath>
</defs>
</svg>
