<svg width="658" height="662" viewBox="0 0 658 662" fill="none" xmlns="http://www.w3.org/2000/svg">
<path fill-rule="evenodd" clip-rule="evenodd" d="M48.6202 0C21.7749 0 0 21.2453 0 47.4221V614.595C0 640.772 21.7749 662 48.6202 662H609.212C636.066 662 657.832 640.772 657.832 614.587V47.4221C657.832 21.2453 636.066 0 609.212 0H48.6202ZM199.413 255.23V554.158H100.054V255.23H199.413ZM205.959 162.782C205.959 191.468 184.393 214.424 149.751 214.424H149.742H149.099C115.751 214.424 94.1934 191.468 94.1934 162.782C94.1934 133.445 116.402 111.132 150.41 111.132C184.393 111.132 205.308 133.445 205.959 162.782ZM353.756 554.158H254.406C254.414 552.399 255.704 283.191 254.415 255.239H353.765V297.557C366.97 277.191 390.607 248.224 443.313 248.224C508.681 248.224 557.692 290.949 557.692 382.763V554.158H458.342V394.258C458.342 354.069 443.956 326.659 408.011 326.659C380.558 326.659 364.21 345.143 357.029 363.003C354.407 369.375 353.756 378.318 353.756 387.243V554.158ZM254.406 554.167V554.158C254.406 554.164 254.406 554.167 254.406 554.167Z" fill="#959BA6"/>
</svg>
