<svg width="41" height="40" viewBox="0 0 41 40" fill="none" xmlns="http://www.w3.org/2000/svg">
<path d="M28.4467 9.73297C28.5387 10.439 28.5907 11.157 28.5907 11.888C28.5907 21.069 21.1277 28.511 11.9217 28.511C11.1887 28.511 10.4687 28.459 9.76074 28.367C10.4177 29.584 12.0077 32.132 15.1127 34C15.8117 34.421 18.2427 35.851 21.1127 36C28.3077 36.374 35.9567 28.576 36.1127 21C36.1337 19.976 36.1537 16.943 34.1127 14C32.1737 11.203 29.4917 10.101 28.4467 9.73297Z" fill="#7CB342"/>
<path d="M6.773 20C6.773 12.685 12.72 6.754 20.056 6.754C23.724 6.754 27.045 8.237 29.448 10.634L34.237 5.858C30.608 2.239 25.594 0 20.056 0C8.979 0 0 8.954 0 20C0 25.523 2.245 30.523 5.874 34.142L10.663 29.366C8.26 26.969 6.773 23.658 6.773 20Z" fill="#29B6F6"/>
<path d="M34.2381 5.85802C32.9151 4.53902 30.7711 4.53902 29.4491 5.85802C28.1261 7.17702 28.1261 9.31502 29.4491 10.634C31.8531 13.031 33.3391 16.342 33.3391 20C33.3391 27.315 27.3921 33.246 20.0561 33.246C16.3881 33.246 13.0671 31.763 10.6641 29.366C9.34106 28.047 7.19706 28.047 5.87506 29.366C4.55206 30.685 4.55206 32.823 5.87506 34.142C9.50406 37.761 14.5181 40 20.0561 40C31.1331 40 40.1121 31.046 40.1121 20C40.1121 14.477 37.8671 9.47702 34.2381 5.85802Z" fill="#244B71"/>
</svg>
