<svg width="78" height="78" viewBox="0 0 78 78" fill="none" xmlns="http://www.w3.org/2000/svg">
<path d="M0 0.174194H78V77.8623H0V0.174194Z" fill="#90A1E5"/>
<path d="M58.0325 21.7714C56.4725 23.3252 54.6005 25.5005 52.5725 27.9865C50.3885 30.4725 48.2045 33.2693 46.0205 36.2214C43.6805 39.1736 41.4965 42.2811 39.3125 45.544C37.1285 48.6515 35.1005 51.759 33.3845 54.7112H58.9685V64.1891H19.1885V57.5079C20.5925 55.0219 22.1525 52.3805 24.1805 49.273C26.2085 46.3209 28.2365 43.2133 30.2645 40.1058C32.2925 36.9983 34.6325 34.0462 36.8165 31.2494C39.0005 28.4526 41.0285 25.8112 42.9005 23.636H20.4365V14.158H58.0325V21.7714V21.7714Z" fill="white"/>
</svg>
