<svg width="427" height="341" viewBox="0 0 427 341" fill="none" xmlns="http://www.w3.org/2000/svg">
<g clip-path="url(#clip0)">
<path d="M65.82 235.109L43.4836 243.263L42.2949 309.644L119.612 281.425C93.0708 272.545 73.715 256.893 65.82 235.109" fill="#90A1E5"/>
<path d="M77.5122 164.899L0 193.188L43.4842 243.28L65.8206 235.126C57.9434 213.413 62.8045 188.899 77.5122 164.899Z" fill="#7C96FA"/>
<path d="M207.93 69.0933C109.234 105.111 45.5957 179.451 65.8209 235.109L423.222 104.668C402.996 49.0105 306.625 33.0754 207.93 69.0933" fill="#B1C1FF"/>
<path d="M281.095 270.701C379.79 234.683 443.535 160.68 423.203 104.686L65.8027 235.109C86.1344 291.121 182.399 306.719 281.095 270.701Z" fill="#546FD6"/>
<path d="M423.203 104.668L65.8203 235.109C72.8104 254.394 99.5112 263.895 136.946 263.895C173.457 263.895 220.188 254.873 268.906 237.094C367.602 201.076 437.024 142.742 423.203 104.668" fill="#7C96FA"/>
<path d="M352.078 75.8999C315.584 75.8999 268.835 84.9221 220.117 102.701C121.422 138.718 52 197.035 65.8205 235.109L423.221 104.668C416.213 85.3829 389.53 75.8999 352.078 75.8999" fill="#90A1E5"/>
<path d="M332.333 313.171C321.812 313.171 306.306 303.688 286.223 284.97C262.467 262.831 235.269 230.394 209.598 193.649C183.944 156.905 162.867 120.178 150.235 90.2043C136.485 57.5542 134.516 37.4891 144.398 30.5408C146.687 28.981 149.401 28.1833 152.169 28.2542C160.206 28.2542 175.889 34.2277 204.861 62.73L205.499 63.3504L205.411 64.2367C205.215 66.2928 205.038 68.3489 204.878 70.3873L204.559 74.411L201.72 71.5572C170.496 40.1302 156.764 36.7447 152.293 36.7447C151.016 36.7447 150.004 36.9928 149.277 37.5069C144.983 40.5202 144.7 55.2676 158.041 86.9074C170.442 116.331 191.218 152.509 216.534 188.775C241.869 225.059 268.659 257 292.006 278.749C317.164 302.199 328.5 304.734 332.208 304.734C333.486 304.734 334.515 304.468 335.295 303.919C339.819 300.746 339.819 284.953 324.952 250.884L324.26 249.325L325.751 248.509C327.241 247.694 328.696 246.896 330.044 246.116L331.836 245.106L332.67 246.985C343.208 271.127 353.072 301.809 340.139 310.885C337.85 312.445 335.118 313.242 332.333 313.171ZM332.333 309.449V311.31V309.449Z" fill="#546FD6"/>
<path d="M283.49 269.673L283.348 271.517C280.847 302.359 274.282 339.44 257.144 340.947C256.789 340.982 256.435 340.982 256.097 340.982C244.459 340.982 233.442 324.32 223.382 291.475C213.837 260.385 206.439 218.66 202.554 173.974C198.651 129.289 198.704 86.9073 202.714 54.6295C207.078 19.4624 215.381 1.099 227.41 0.0354758C227.764 2.51413e-05 228.137 -0.0177002 228.492 -0.0177002C236.937 -0.0177002 249.657 9.53625 262.68 54.0268L254.181 55.6576C249.835 40.8037 245.098 28.7151 240.396 20.3842C236.05 12.7091 231.81 8.47273 228.492 8.47273C228.385 8.47273 228.279 8.47274 228.155 8.49046C222.939 8.95132 215.346 21.5718 211.123 55.6753C207.184 87.3682 207.131 129.129 210.981 173.23C214.831 217.348 222.105 258.453 231.472 288.976C235.659 302.642 240.254 313.916 244.778 321.555C248.93 328.61 252.957 332.492 256.097 332.492C256.204 332.492 256.31 332.492 256.417 332.474C261.402 332.049 270.805 318.897 274.761 272.651L283.49 269.673Z" fill="#546FD6"/>
</g>
<defs>
<clipPath id="clip0">
<rect width="427" height="341" fill="white"/>
</clipPath>
</defs>
</svg>
